<svg xmlns="http://www.w3.org/2000/svg" contentScriptType="text/ecmascript" width="375" viewBox="0 0 375 375" height="375" version="1.0"><defs><clipPath id="a"><path d="M 88.402344 23 L 268 23 L 268 353.617188 L 88.402344 353.617188 Z M 88.402344 23"/></clipPath></defs><g clip-path="url(#a)"><path fill="#141640" d="M 247.695312 210.449219 C 243.941406 236.394531 240.734375 262.417969 238.210938 288.515625 C 236.78125 303.320312 236.007812 318.203125 234.53125 333 C 233.476562 333.550781 232.417969 334.109375 231.371094 334.675781 C 231.25 329.902344 232.046875 324.929688 232.375 320.234375 C 232.808594 313.910156 233.246094 307.585938 233.6875 301.265625 C 234.503906 289.503906 235.285156 277.742188 236.0625 265.976562 C 236.625 257.5 237.621094 249.109375 238.730469 240.691406 C 240.972656 223.679688 243.273438 206.6875 245.972656 189.75 C 247.050781 183.933594 248.027344 178.101562 248.921875 172.257812 C 249.4375 169.371094 249.960938 166.484375 250.511719 163.605469 C 251.640625 157.667969 252.84375 151.746094 254.304688 145.882812 C 254.886719 143.542969 255.667969 141.292969 256.402344 139.019531 C 257.550781 138.140625 258.695312 137.253906 259.835938 136.363281 C 258.75 141.089844 258.101562 145.984375 257.273438 150.695312 C 256.105469 157.339844 254.976562 163.988281 253.878906 170.644531 C 251.683594 183.890625 249.613281 197.15625 247.695312 210.449219 Z M 200.761719 349.671875 C 197.480469 349.484375 194.121094 348.285156 190.910156 347.148438 C 191.164062 346.730469 191.300781 346.238281 191.261719 345.6875 C 188.988281 314.386719 187.265625 283.089844 187.089844 251.695312 C 187 235.957031 187.128906 220.214844 187.300781 204.476562 C 187.417969 193.433594 188.035156 182.214844 188.007812 171.085938 C 191.140625 171.675781 194.292969 172.132812 197.457031 172.351562 C 197.675781 172.367188 197.714844 172.027344 197.507812 171.972656 C 194.339844 171.109375 191.171875 170.304688 187.996094 169.5 C 187.972656 166.058594 187.871094 162.621094 187.671875 159.203125 C 194.15625 160.503906 200.652344 161.742188 207.164062 162.847656 C 205.738281 169.863281 206.105469 177.257812 206.027344 184.390625 C 205.945312 192.289062 205.875 200.191406 205.859375 208.089844 C 205.828125 223.625 205.800781 239.15625 205.621094 254.691406 C 205.4375 270.230469 205.28125 285.765625 205.019531 301.300781 C 204.882812 309.195312 204.75 317.097656 204.617188 324.996094 C 204.484375 332.824219 203.742188 340.910156 204.625 348.695312 C 204.65625 348.949219 204.757812 349.179688 204.898438 349.378906 C 203.53125 349.636719 202.144531 349.746094 200.761719 349.671875 Z M 161.671875 337.105469 C 160.835938 335.648438 159.714844 334.371094 158.816406 332.945312 C 158.488281 332.421875 157.972656 331.597656 157.355469 331.042969 C 157.019531 325.816406 156.457031 320.5625 155.433594 315.433594 C 154.921875 312.878906 154.480469 310.078125 153.753906 307.382812 C 154.003906 303.046875 152.882812 298.382812 152.265625 294.328125 C 151.210938 287.363281 149.832031 280.4375 148.4375 273.535156 C 145.632812 259.671875 142.992188 245.679688 141.253906 231.636719 C 140.382812 224.613281 140.371094 217.566406 139.644531 210.535156 C 138.90625 203.394531 138.136719 196.253906 137.25 189.128906 C 136.390625 182.25 135.429688 175.378906 134.265625 168.542969 C 133.652344 164.9375 132.976562 161.382812 132.445312 157.816406 C 136.253906 159.007812 140.070312 160.191406 143.910156 161.289062 C 144.402344 161.425781 144.894531 161.5625 145.386719 161.691406 C 145.921875 165.699219 146.675781 169.695312 147.242188 173.589844 C 148.414062 181.679688 149.484375 189.78125 150.457031 197.894531 C 152.402344 214.09375 153.988281 230.324219 155.542969 246.5625 C 158.492188 277.390625 161.167969 308.460938 167.238281 338.871094 C 167.007812 338.804688 166.777344 338.734375 166.554688 338.667969 C 164.925781 338.148438 163.296875 337.625 161.671875 337.105469 Z M 134.105469 328.082031 C 134.105469 328.019531 134.101562 327.953125 134.089844 327.886719 C 133.9375 327.027344 133.78125 326.171875 133.628906 325.316406 C 134.074219 326.417969 134.597656 327.46875 135.214844 328.449219 C 134.945312 328.359375 134.683594 328.273438 134.417969 328.183594 C 134.3125 328.148438 134.210938 328.117188 134.105469 328.082031 Z M 120.800781 322.613281 C 120.8125 322.546875 120.824219 322.472656 120.828125 322.394531 C 121.09375 314.644531 119.1875 306.5 118.128906 298.828125 C 117.851562 296.792969 117.558594 294.757812 117.273438 292.71875 C 117.367188 286.753906 117.375 280.78125 116.40625 274.871094 C 115.117188 266.992188 113.179688 259.199219 111.164062 251.429688 C 110.140625 244.832031 109.097656 238.242188 108.039062 231.652344 C 105.644531 216.773438 103.164062 201.90625 100.648438 187.046875 C 98.300781 173.160156 96.632812 158.832031 93.472656 145.054688 C 97.019531 147.214844 101.058594 148.644531 105.167969 149.828125 C 105.191406 150.261719 105.207031 150.695312 105.191406 151.128906 C 105.140625 152.800781 105.328125 154.417969 105.613281 156.039062 C 106.832031 173.78125 109.273438 191.59375 111.542969 209.117188 C 114.695312 233.421875 119.453125 257.492188 123.789062 281.601562 C 126.535156 296.867188 129.277344 312.132812 132.023438 327.394531 C 128.136719 326.128906 124.257812 324.832031 120.800781 322.613281 Z M 112.179688 258.023438 C 113.554688 263.675781 114.804688 269.347656 115.710938 275.066406 C 116.34375 279.046875 116.503906 283.078125 116.488281 287.132812 C 115.976562 283.539062 115.460938 279.945312 114.933594 276.355469 C 114.035156 270.242188 113.113281 264.132812 112.179688 258.023438 Z M 100.132812 132.746094 C 101.859375 131.277344 103.632812 129.9375 105.589844 128.792969 C 107.523438 127.664062 109.914062 126.898438 111.695312 125.507812 C 112.722656 125.894531 113.578125 126.554688 114.128906 127.71875 C 113.824219 128.128906 113.570312 128.585938 113.410156 129.09375 C 112.832031 130.964844 113.527344 132.667969 114.90625 133.617188 C 114.109375 134.386719 113.570312 135.3125 113.304688 136.289062 C 112.328125 136.761719 111.773438 137.453125 112.546875 139.207031 C 112.769531 139.722656 113.105469 140.171875 113.5 140.578125 C 113.4375 140.746094 113.402344 140.921875 113.414062 141.101562 C 110.109375 140.460938 106.804688 139.824219 103.5 139.207031 C 100.855469 138.71875 97.820312 137.800781 94.90625 137.550781 C 96.953125 135.902344 98.867188 133.820312 100.132812 132.746094 Z M 98.359375 112.5 C 97.152344 111.253906 97.558594 109.847656 98.425781 108.570312 C 98.492188 110.136719 99.070312 111.71875 99.6875 113.226562 C 99.179688 113.023438 98.691406 112.839844 98.359375 112.5 Z M 117.441406 86.355469 C 117.449219 88.042969 117.371094 89.9375 117.390625 91.816406 C 117.148438 89.769531 116.859375 87.867188 117.441406 86.355469 Z M 132.449219 81.902344 C 133.296875 82.707031 133.46875 83.730469 134.625 84.394531 C 134.882812 84.542969 135.148438 84.652344 135.414062 84.75 C 135.144531 84.703125 134.878906 84.660156 134.625 84.632812 C 133.039062 84.457031 132.015625 84.46875 130.785156 84.078125 C 130.742188 83.996094 130.695312 83.914062 130.644531 83.832031 C 130.0625 82.992188 129.175781 82.699219 128.222656 82.6875 C 128.011719 82.488281 127.789062 82.308594 127.460938 82.230469 C 126.496094 82.019531 126.214844 82.578125 125.351562 82.730469 C 125.566406 82.691406 125.0625 82.671875 124.253906 82.679688 C 125.113281 82.472656 125.976562 82.273438 126.820312 82.066406 C 128.914062 81.550781 130.859375 80.398438 132.449219 81.902344 Z M 136.277344 64.289062 C 136.289062 64.359375 136.296875 64.425781 136.308594 64.5 C 137.011719 68.101562 140.074219 70.097656 138.734375 74.285156 C 138.472656 75.101562 138.152344 75.828125 137.851562 76.546875 C 137.839844 75.851562 137.800781 75.140625 137.742188 74.421875 C 137.523438 71.839844 136.546875 69.566406 136.128906 67.058594 C 135.941406 65.917969 136.015625 65.023438 136.277344 64.289062 Z M 154.054688 59.441406 C 154.859375 60.296875 155.542969 61.308594 156.289062 62.214844 C 156.800781 62.835938 157.332031 63.441406 157.882812 64.027344 C 156.90625 63.324219 155.976562 62.550781 155.105469 61.671875 C 153.808594 60.367188 152.59375 58.90625 151.050781 57.871094 C 151.015625 57.84375 150.976562 57.828125 150.941406 57.800781 C 152.058594 57.980469 153.066406 58.390625 154.054688 59.441406 Z M 155.683594 46.308594 C 155.652344 45.582031 155.101562 43.433594 155.796875 42.851562 C 156.011719 42.675781 157.003906 42.71875 157.855469 42.695312 C 157.203125 43.371094 156.683594 44.175781 156.457031 45.390625 C 156.195312 46.789062 156.472656 48.207031 156.605469 49.601562 C 156.851562 52.132812 156.738281 54.394531 156.308594 56.84375 C 156.160156 56.699219 156.015625 56.554688 155.863281 56.417969 C 156.128906 53.070312 155.832031 49.660156 155.683594 46.308594 Z M 171.175781 35.304688 C 170.496094 35.199219 169.8125 35.117188 169.136719 35.066406 C 169.765625 35.066406 170.441406 35.148438 171.175781 35.304688 Z M 191.589844 30.171875 C 192.816406 28.625 193.488281 27.40625 195.570312 27.117188 C 197.4375 26.859375 198.871094 27.546875 200.253906 28.785156 C 200.707031 29.195312 201.105469 29.648438 201.496094 30.097656 C 200.863281 29.683594 200.226562 29.253906 199.546875 28.808594 C 198.363281 28.039062 197.109375 27.5 195.691406 27.957031 C 192.710938 28.921875 189.628906 32.601562 187.398438 34.683594 C 185.597656 36.359375 184.578125 38.121094 184.621094 40.550781 C 184.613281 40.546875 184.605469 40.546875 184.597656 40.542969 C 183.175781 36.402344 189.425781 32.898438 191.589844 30.171875 Z M 213.261719 42.414062 C 213.214844 42.902344 213.136719 43.320312 213.070312 43.722656 C 212.574219 42.410156 212.054688 41.105469 211.675781 39.851562 C 211.273438 38.53125 210.773438 37.183594 210.0625 35.980469 C 212.046875 37.746094 213.511719 39.933594 213.261719 42.414062 Z M 213.878906 53.484375 C 213.539062 53.875 213.433594 54.414062 213.5 54.925781 C 213.207031 54.929688 212.910156 54.945312 212.613281 54.972656 C 214.050781 53.472656 214.863281 51.328125 214.628906 49.21875 C 214.617188 49.117188 214.59375 49.015625 214.578125 48.914062 C 215.285156 50.238281 215.605469 51.507812 213.878906 53.484375 Z M 222.328125 68.574219 C 222.175781 68.238281 221.941406 67.84375 221.582031 67.335938 C 221.289062 66.921875 221.035156 66.460938 220.792969 65.984375 C 220.832031 66.015625 220.867188 66.039062 220.90625 66.070312 C 222.121094 67.027344 222.3125 67.527344 222.328125 68.574219 Z M 227.109375 79.082031 C 227.542969 81.054688 227.390625 83.003906 227.890625 84.945312 C 227.554688 85.078125 227.21875 85.21875 226.882812 85.363281 C 226.789062 84.207031 226.519531 83.050781 226.335938 82.402344 C 225.492188 79.425781 223.304688 76.613281 222.664062 73.65625 C 222.441406 72.632812 222.390625 71.90625 222.40625 71.34375 C 222.53125 72.234375 222.816406 73.074219 223.425781 73.886719 C 225.230469 76.289062 226.214844 75 227.109375 79.082031 Z M 239.140625 68.859375 C 239.269531 69.160156 239.429688 69.441406 239.59375 69.722656 C 239.484375 69.664062 239.378906 69.597656 239.269531 69.550781 C 237.683594 68.859375 235.933594 68.542969 234.324219 67.8125 C 233.722656 67.542969 233.089844 67.195312 232.441406 66.929688 C 233.476562 67.15625 234.519531 67.558594 235.582031 67.730469 C 236.878906 67.652344 238.066406 68.027344 239.140625 68.859375 Z M 244.46875 85.855469 C 244.058594 86.46875 243.691406 87.019531 243.363281 87.585938 C 242.105469 85.675781 240.570312 84.070312 238.570312 83.578125 C 236 82.945312 233.574219 83.167969 231.214844 83.804688 C 231.363281 81.152344 231.117188 78.171875 230.390625 75.796875 C 230.023438 74.597656 229.371094 74.210938 228.707031 73.324219 C 228.359375 73.023438 227.972656 72.785156 227.542969 72.617188 C 227.238281 71.785156 226.929688 70.949219 226.625 70.113281 C 226.9375 69.570312 227.25 69.0625 227.582031 68.617188 C 228.914062 67.582031 230.894531 67.390625 233.351562 68.261719 C 234.34375 68.609375 235.253906 69.21875 236.238281 69.601562 C 237.730469 70.1875 238.878906 70.289062 240.15625 71.382812 C 241.394531 72.449219 242.417969 73.875 243.59375 75.023438 C 243.671875 75.097656 243.753906 75.132812 243.835938 75.152344 C 244.265625 76.664062 244.4375 78.34375 244.988281 79.773438 C 245.964844 82.324219 245.921875 83.703125 244.46875 85.855469 Z M 250.464844 109.261719 C 250.820312 109.617188 251.121094 109.957031 251.375 110.285156 C 251.828125 111.355469 251.925781 112.503906 251.554688 114.285156 C 251.375 115.140625 251.085938 115.996094 250.800781 116.839844 C 250.222656 117.792969 249.6875 118.757812 249.527344 119.890625 C 249.507812 120.027344 249.515625 120.203125 249.539062 120.398438 C 248.132812 123.683594 246.011719 126.121094 241.648438 126.015625 C 237.25 125.914062 234.464844 124.328125 231.132812 121.75 C 229.546875 120.527344 222.980469 117.933594 223.636719 115.964844 C 223.640625 115.953125 223.640625 115.945312 223.640625 115.9375 C 224.53125 115.511719 225.253906 114.996094 225.890625 114.082031 C 227.882812 111.226562 226.640625 107.8125 226.296875 104.628906 C 226.582031 104.445312 226.792969 104.136719 226.816406 103.664062 C 227.011719 98.894531 233.65625 100.261719 236.652344 100.203125 C 238.257812 100.171875 239.65625 99.792969 241.140625 100.671875 C 242.15625 101.269531 242.996094 102.351562 243.863281 103.160156 C 246.054688 105.195312 248.347656 107.152344 250.464844 109.261719 Z M 253.035156 126.605469 C 253.648438 125.910156 253.820312 124.984375 253.792969 124.097656 C 253.707031 121.664062 252.476562 120.816406 254.007812 118.488281 C 255.074219 116.863281 256.203125 115.371094 256.53125 113.632812 C 258.507812 115.585938 261.570312 119.964844 261.707031 120.332031 C 262.21875 121.722656 262.535156 123.136719 263.191406 124.484375 C 263.683594 125.496094 264 125.769531 263.847656 126.773438 C 263.769531 127.292969 263.332031 128.039062 262.917969 128.695312 C 259.71875 127.632812 256.316406 129.441406 253.449219 131.441406 C 248.078125 135.183594 242.902344 139.171875 237.429688 142.78125 C 236.441406 143.433594 235.445312 144.078125 234.449219 144.722656 C 235.792969 142.445312 236.265625 139.867188 235.1875 137.449219 C 234.5 135.898438 233.652344 134.910156 233.5 133.082031 C 233.421875 132.097656 233.515625 131.097656 233.507812 130.113281 C 233.507812 129.839844 233.5 129.566406 233.492188 129.289062 C 236.125 130.382812 238.777344 130.953125 241.804688 130.425781 C 244.230469 130 246.605469 129.101562 248.953125 128.363281 C 250.207031 127.972656 252.078125 127.679688 253.035156 126.605469 Z M 257.820312 134.050781 C 258.777344 133.511719 259.769531 133.03125 260.808594 132.632812 C 260.578125 133.414062 260.363281 134.199219 260.167969 134.988281 C 259.097656 135.714844 258.03125 136.453125 256.976562 137.199219 C 257.289062 136.164062 257.578125 135.117188 257.820312 134.050781 Z M 208.15625 326.578125 C 208.203125 318.675781 208.25 310.78125 208.296875 302.878906 C 208.386719 287.078125 208.585938 271.28125 208.761719 255.484375 C 208.933594 239.683594 209.261719 223.886719 209.59375 208.089844 C 209.761719 200.191406 209.867188 192.292969 209.964844 184.390625 C 209.996094 182.003906 210.074219 179.589844 210.121094 177.167969 C 210.613281 179.878906 211.101562 182.589844 211.527344 185.3125 C 212.355469 190.570312 213.054688 195.859375 213.679688 201.152344 C 213.636719 206.570312 213.527344 211.980469 213.257812 217.394531 C 212.753906 227.390625 213.054688 237.472656 213.164062 247.476562 C 213.289062 259.644531 213.640625 271.804688 213.828125 283.976562 C 213.992188 294.84375 213.324219 305.75 212.882812 316.609375 C 212.613281 323.179688 212.320312 329.753906 212.175781 336.328125 C 212.101562 339.75 211.859375 343.207031 212.410156 346.585938 C 210.890625 347.410156 209.273438 348.136719 207.605469 348.679688 C 208.542969 341.40625 208.113281 333.902344 208.15625 326.578125 Z M 194.632812 156.53125 C 194.628906 155.261719 194.84375 153.964844 195.25 152.703125 C 195.066406 154.117188 195.546875 155.488281 197.144531 156.578125 C 197.117188 156.726562 197.109375 156.882812 197.152344 157.042969 C 196.3125 156.871094 195.472656 156.699219 194.632812 156.53125 Z M 183.917969 154.472656 C 184.703125 154.246094 185.464844 154.023438 186.207031 153.804688 C 188.875 153.027344 190.578125 151.347656 188.6875 148.65625 C 187.394531 146.816406 185.183594 145.960938 183.917969 144.019531 C 183.597656 143.527344 183.390625 142.941406 183.21875 142.324219 C 186.167969 143.941406 190.300781 144.453125 192.917969 144.574219 C 194.914062 144.664062 196.585938 144.277344 198.273438 143.671875 C 194.988281 146.582031 191.011719 151.476562 192.238281 156.058594 C 189.46875 155.519531 186.695312 154.988281 183.917969 154.472656 Z M 181.710938 199.53125 C 181.324219 189.636719 181.171875 179.691406 182.542969 169.917969 C 182.558594 169.921875 182.574219 169.925781 182.59375 169.929688 C 181.980469 179.765625 181.921875 189.71875 181.710938 199.53125 Z M 164.746094 270.414062 C 165.441406 277.003906 165.878906 283.605469 166.214844 290.21875 C 166.394531 293.847656 166.445312 297.515625 166.753906 301.132812 C 167.003906 304.097656 167.734375 306.636719 168.453125 309.382812 C 168.25 309.839844 168.09375 310.3125 167.976562 310.804688 C 164.738281 289.933594 162.441406 268.949219 160.339844 247.890625 C 162.085938 255.339844 163.945312 262.765625 164.746094 270.414062 Z M 131.507812 147.78125 C 135.941406 148.65625 140.378906 149.53125 144.8125 150.40625 C 144.625 153.4375 144.792969 156.515625 145.132812 159.589844 C 140.820312 158.484375 136.515625 157.367188 132.222656 156.21875 C 131.84375 153.433594 131.578125 150.632812 131.507812 147.78125 Z M 135.6875 252.109375 C 134.222656 245.542969 134.402344 238.765625 134.390625 232.082031 C 134.382812 225.585938 133.941406 219.175781 133.1875 212.722656 C 132.246094 204.648438 131.046875 196.394531 131.046875 188.203125 C 131.933594 195.128906 132.699219 202.0625 133.433594 209.003906 C 134.195312 216.179688 135.5625 223.257812 136.277344 230.4375 C 137.476562 242.445312 138.292969 254.417969 139.960938 266.347656 C 138.59375 261.570312 136.777344 256.972656 135.6875 252.109375 Z M 125.496094 279.394531 C 127.066406 284.605469 128.464844 290.710938 131.019531 295.667969 C 130.585938 300.640625 130.644531 305.699219 130.96875 310.65625 C 128.941406 299.550781 126.898438 288.449219 124.894531 277.339844 C 125.089844 278.023438 125.289062 278.707031 125.496094 279.394531 Z M 118.808594 242.023438 C 119.390625 244.628906 119.753906 247.253906 120.050781 249.886719 C 119.515625 246.765625 118.988281 243.636719 118.46875 240.511719 C 118.582031 241.015625 118.695312 241.519531 118.808594 242.023438 Z M 109.882812 174.9375 C 110.191406 176.640625 110.550781 178.332031 110.929688 180.019531 C 111.074219 181.777344 111.210938 183.53125 111.347656 185.289062 C 111.796875 191.160156 112.195312 197.039062 112.671875 202.90625 C 111.46875 194.3125 110.355469 185.707031 109.371094 177.082031 C 109.042969 174.195312 108.746094 171.304688 108.457031 168.410156 C 108.984375 170.574219 109.484375 172.746094 109.882812 174.9375 Z M 117.902344 96.921875 C 118.003906 97.328125 118.132812 97.664062 118.285156 97.960938 C 118.191406 97.894531 118.097656 97.832031 118.003906 97.75 C 117.648438 97.445312 117.289062 97.152344 116.917969 96.871094 C 116.808594 96.820312 116.710938 96.765625 116.605469 96.710938 C 117.140625 95.917969 117.40625 95.03125 117.480469 94.042969 C 117.554688 95.050781 117.683594 96.023438 117.902344 96.921875 Z M 139.234375 85.601562 C 140.898438 86.085938 141.980469 86.992188 142.988281 88.089844 C 142.445312 88.421875 142.039062 88.839844 141.636719 89.414062 C 141.589844 89.480469 141.554688 89.542969 141.515625 89.605469 C 141.488281 89.207031 141.40625 88.8125 141.238281 88.445312 C 140.503906 86.804688 138.804688 85.75 137.03125 85.164062 C 137.769531 85.292969 138.515625 85.394531 139.234375 85.601562 Z M 223.0625 111.847656 C 222.316406 112.902344 220.757812 113.003906 219.601562 113.46875 C 220.945312 112.453125 222.1875 111.304688 223.1875 110.039062 C 223.304688 109.890625 223.40625 109.746094 223.5 109.601562 C 223.570312 110.4375 223.492188 111.234375 223.0625 111.847656 Z M 219.753906 118.15625 C 220.644531 117.453125 221.53125 116.800781 222.742188 116.324219 C 222.757812 116.316406 222.773438 116.308594 222.789062 116.304688 C 222.449219 117.324219 222.714844 118.097656 223.320312 118.707031 C 222.191406 118.449219 220.976562 118.242188 219.753906 118.15625 Z M 232.71875 125.121094 C 232.355469 124.28125 231.871094 123.535156 231.304688 122.875 C 232.699219 124.175781 233.671875 125.148438 235.933594 125.78125 C 237.867188 126.324219 240.28125 126.824219 242.425781 126.804688 C 238.910156 127.535156 236.144531 126.800781 232.828125 125.410156 C 232.789062 125.316406 232.757812 125.214844 232.71875 125.121094 Z M 231.859375 141.96875 C 231.765625 140.679688 231.5625 139.394531 231.289062 138.125 C 231.324219 138.199219 231.355469 138.269531 231.394531 138.34375 C 232.125 139.804688 232.539062 140.710938 231.859375 141.96875 Z M 221.277344 152.808594 C 219.71875 153.710938 218.148438 154.59375 216.578125 155.480469 C 216.945312 154.503906 217.179688 153.527344 217.246094 152.8125 C 217.339844 151.800781 217.359375 150.757812 217.300781 149.71875 C 219.203125 150.835938 221.308594 151.496094 223.503906 151.496094 C 222.761719 151.933594 222.023438 152.378906 221.277344 152.808594 Z M 232.808594 156.328125 C 230.527344 158.199219 228.195312 160.003906 225.757812 161.621094 C 225.847656 159.449219 225.917969 157.28125 225.957031 155.109375 C 228.738281 153.503906 231.484375 151.851562 234.210938 150.15625 C 233.625 152.160156 233.175781 154.230469 232.808594 156.328125 Z M 235.546875 195.746094 C 236.269531 187.949219 237.074219 180.15625 238.003906 172.378906 C 238.203125 170.738281 238.4375 169.074219 238.683594 167.390625 C 239.695312 168.324219 239.9375 168.710938 239.730469 171.160156 C 239.472656 174.210938 238.386719 178.371094 238.964844 181.730469 C 237.941406 187.96875 236.878906 194.199219 235.789062 200.421875 C 235.398438 202.660156 234.976562 204.890625 234.546875 207.121094 C 234.863281 203.328125 235.195312 199.539062 235.546875 195.746094 Z M 219.289062 328.230469 C 219.695312 317.046875 220.089844 305.867188 220.453125 294.683594 C 221.3125 268.550781 222.882812 242.457031 223.765625 216.328125 C 224.117188 205.9375 224.554688 195.535156 224.71875 185.136719 C 224.84375 177.4375 225.402344 169.75 225.738281 162.054688 C 228.128906 160.585938 230.410156 158.960938 232.648438 157.253906 C 231.902344 161.800781 231.511719 166.460938 230.984375 170.824219 C 230.046875 178.597656 229.269531 186.390625 228.578125 194.183594 C 227.148438 210.308594 226.183594 226.476562 225.253906 242.640625 C 224.320312 258.832031 223.527344 275.03125 222.636719 291.230469 C 221.746094 307.417969 220.15625 323.714844 219.8125 339.910156 C 219.761719 340.378906 219.792969 340.796875 219.882812 341.171875 C 219.519531 341.378906 219.15625 341.589844 218.796875 341.796875 C 219.304688 337.300781 219.132812 332.5625 219.289062 328.230469 Z M 213.796875 161.9375 C 213.683594 166.390625 213.636719 170.847656 213.636719 175.304688 C 213.578125 174.996094 213.527344 174.691406 213.46875 174.386719 C 212.746094 170.726562 212.488281 166.039062 210.503906 162.78125 C 211.527344 162.757812 212.65625 162.425781 213.796875 161.9375 Z M 198.855469 148.117188 C 200.257812 146.800781 201.542969 145.914062 203.375 145.339844 C 206.957031 144.214844 210.101562 144.59375 213.128906 146.378906 C 214.429688 149.921875 213.5625 154.722656 212.394531 155.8125 C 212.039062 155.292969 211.550781 154.855469 210.957031 154.589844 C 208.976562 153.71875 207.414062 155.066406 205.546875 155.574219 C 203.105469 156.234375 200.792969 155.289062 198.359375 155.542969 C 197.882812 155.589844 197.464844 155.878906 197.257812 156.265625 C 193.859375 153.417969 196.949219 149.90625 198.855469 148.117188 Z M 205.984375 142.605469 C 208.242188 142.179688 209.898438 142.585938 211.09375 143.476562 C 211.269531 143.757812 211.449219 144.035156 211.636719 144.308594 C 207.855469 142.78125 202.609375 144 199.695312 146.28125 C 198.933594 146.875 198.136719 147.621094 197.421875 148.457031 C 199.527344 145.523438 202.609375 143.238281 205.984375 142.605469 Z M 183.3125 132.914062 C 183.203125 132.457031 183.027344 132.09375 182.820312 131.753906 C 183.070312 131.890625 183.328125 132.023438 183.574219 132.167969 C 184.890625 133.328125 185.429688 134.683594 185.191406 136.246094 C 185.398438 136.671875 185.359375 137.242188 185.601562 137.675781 C 186.515625 139.3125 188.195312 140.300781 190.128906 140.835938 C 186.898438 140.488281 183.851562 139.429688 183.285156 137.195312 C 182.945312 135.859375 183.648438 134.3125 183.3125 132.914062 Z M 182.511719 151.65625 C 182.257812 148.476562 180.214844 144.476562 177.640625 143.300781 C 176.945312 142.984375 176.265625 143.085938 175.574219 142.765625 C 175 142.503906 174.585938 142.0625 174.128906 141.660156 C 175.261719 141.335938 176.34375 140.804688 177.539062 140.5625 C 179.984375 140.074219 179.070312 140.25 179.816406 141.984375 C 180.339844 143.195312 180.667969 144.359375 181.378906 145.5 C 182.0625 146.59375 182.925781 147.570312 183.882812 148.425781 C 184.449219 148.867188 185.019531 149.308594 185.589844 149.75 C 186.425781 150.511719 186.359375 150.878906 185.390625 150.84375 C 184.886719 151.285156 183.679688 151.5 182.511719 151.65625 Z M 125.71875 143.492188 C 127.8125 142.628906 129.824219 141.570312 132.089844 141.183594 C 134.734375 140.730469 137.390625 141.28125 140.039062 140.941406 C 140.933594 140.828125 142.003906 140.546875 142.996094 140.09375 C 143.296875 141.273438 144.097656 142.148438 145.234375 142.765625 C 144.773438 144.246094 145.019531 145.890625 145.871094 147.40625 C 139.152344 146.101562 132.4375 144.796875 125.71875 143.492188 Z M 126.003906 148.328125 C 125.78125 147.707031 125.527344 147.109375 125.222656 146.542969 C 125.578125 146.613281 125.9375 146.683594 126.292969 146.753906 C 126.179688 147.28125 126.078125 147.804688 126.003906 148.328125 Z M 142.628906 316.421875 C 143.179688 319.300781 143.730469 322.183594 144.289062 325.066406 C 144.367188 325.453125 144.445312 325.835938 144.523438 326.222656 C 142.03125 323.570312 142.210938 320.191406 142.628906 316.421875 Z M 116.085938 135.53125 C 115.992188 135.53125 115.898438 135.53125 115.808594 135.53125 C 115.992188 135.335938 116.195312 135.144531 116.4375 134.957031 C 116.339844 135.144531 116.21875 135.335938 116.085938 135.53125 Z M 129.792969 114.035156 C 128.800781 114.671875 127.859375 115.300781 127.066406 116.171875 C 126.6875 116.097656 126.3125 116.046875 125.949219 116.011719 C 127.691406 114.089844 128.476562 110.6875 127.699219 108.058594 C 128.027344 108.304688 128.363281 108.550781 128.675781 108.804688 C 129.066406 109.078125 129.4375 109.382812 129.777344 109.71875 C 131.035156 110.695312 131.035156 112.132812 129.792969 114.035156 Z M 140.421875 95.863281 C 139.613281 96.308594 138.722656 96.660156 137.699219 97.054688 C 135.75 97.800781 133.714844 99.097656 132.347656 100.773438 C 132.5 100.152344 132.742188 99.546875 133.121094 98.96875 C 134.804688 96.429688 137.871094 96.710938 140.421875 95.863281 Z M 152.417969 92.90625 C 154.5 94.414062 156.039062 96.359375 157.527344 98.4375 C 158.070312 99.199219 159.351562 100.652344 159.589844 101.550781 C 159.675781 101.882812 159.71875 102.195312 159.738281 102.496094 C 159.664062 102.0625 159.539062 101.65625 159.351562 101.316406 C 158.777344 100.273438 157.128906 99.503906 156.285156 98.691406 C 155.273438 97.707031 154.382812 96.597656 153.480469 95.515625 C 151.96875 93.703125 150.304688 91.683594 148 90.851562 C 147.226562 90.574219 146.425781 90.351562 145.671875 90.457031 C 147.878906 89.953125 150.914062 91.820312 152.417969 92.90625 Z M 173.917969 68.652344 C 174.652344 71.667969 175.886719 73.242188 174.882812 76.582031 C 174.746094 77.042969 174.578125 77.359375 174.441406 77.640625 C 173.945312 77.464844 173.441406 77.308594 172.929688 77.167969 C 173.753906 74.632812 173.503906 71.210938 172.28125 68.632812 C 172.640625 67.390625 173.144531 66.289062 173.769531 65.230469 C 173.605469 66.347656 173.632812 67.492188 173.917969 68.652344 Z M 195.890625 60.679688 C 195.082031 60.125 194.476562 59.582031 193.882812 58.925781 C 193.539062 58.367188 193.316406 57.675781 193.148438 56.648438 C 193 55.714844 193.28125 55.015625 192.910156 54.078125 C 192.265625 52.457031 191.003906 51.867188 189.390625 51.539062 C 188.96875 51.472656 188.546875 51.449219 188.121094 51.46875 C 187.230469 51.515625 186.425781 51.328125 185.707031 50.914062 C 186.453125 50.785156 187.21875 50.710938 187.980469 50.691406 C 192.578125 50.574219 194.128906 53.40625 194.972656 57.324219 C 195.265625 58.671875 195.570312 59.769531 195.9375 60.707031 C 195.921875 60.699219 195.90625 60.6875 195.890625 60.679688 Z M 206.144531 80.832031 C 206.074219 80.847656 206.003906 80.867188 205.933594 80.882812 C 206.820312 78.003906 206.324219 74.125 206.246094 71.304688 C 206.238281 71.03125 206.21875 70.773438 206.191406 70.523438 C 208.234375 73.839844 208.515625 78.03125 206.144531 80.832031 Z M 222.078125 96.03125 C 222.402344 96.574219 222.613281 97.171875 222.75 97.800781 C 222.5625 97.492188 222.351562 97.191406 222.089844 96.910156 C 221.191406 95.960938 220.039062 95.699219 218.957031 95.046875 C 217.089844 93.925781 216.222656 92.300781 214.921875 90.644531 C 213.46875 88.796875 210.960938 85.835938 208.585938 85.164062 C 208.363281 85.101562 208.121094 85.0625 207.871094 85.035156 C 208.148438 84.792969 208.402344 84.519531 208.640625 84.222656 C 209.597656 84.207031 210.558594 84.402344 211.496094 84.910156 C 213.824219 86.160156 214.550781 89.234375 216.421875 91.058594 C 218.175781 92.769531 220.789062 93.871094 222.078125 96.03125 Z M 215.773438 114.550781 C 215.410156 114.082031 214.964844 113.667969 214.398438 113.328125 C 212.835938 112.398438 211.03125 112.5625 209.414062 113.214844 C 206.449219 114.417969 204.703125 116.464844 201.449219 116.261719 C 201.386719 115.972656 201.195312 115.710938 200.816406 115.523438 C 199.988281 115.121094 199.128906 114.8125 198.257812 114.589844 C 199.628906 113.101562 200.300781 111.335938 198.628906 109.371094 C 196.566406 106.941406 195.339844 105.84375 194.441406 102.613281 C 194.160156 101.597656 193.917969 100.550781 193.621094 99.523438 C 194.53125 94.921875 194.636719 90.441406 198.78125 88.183594 C 199.640625 87.875 200.496094 87.574219 201.230469 87.238281 C 204.359375 86.386719 207.769531 85.339844 210.390625 87.5625 C 212.46875 89.320312 213.828125 91.226562 215.453125 93.359375 C 214.414062 92.585938 213.320312 91.859375 212.398438 90.859375 C 211.078125 89.421875 209.371094 87.082031 207.429688 88.089844 C 204.558594 87.652344 201.441406 89.628906 201.1875 92.328125 C 201.101562 92.386719 201.019531 92.460938 200.953125 92.546875 C 199.574219 94.28125 200.054688 96.714844 202.261719 97.546875 C 203.191406 97.894531 204.28125 97.796875 205.164062 97.371094 C 205.804688 97.0625 206.152344 96.605469 206.449219 96.101562 C 209.304688 98.707031 212.210938 100.445312 216.511719 100.480469 C 218.488281 100.5 219.242188 98.488281 218.566406 96.902344 C 218.375 96.449219 218.136719 96.050781 217.878906 95.683594 C 218.046875 95.785156 218.21875 95.886719 218.410156 95.988281 C 221.519531 97.691406 222.515625 99.71875 222.753906 103.128906 C 222.765625 103.324219 222.78125 103.511719 222.796875 103.699219 C 222.757812 104.617188 222.761719 105.503906 222.882812 106.324219 C 222.820312 107.652344 222.488281 108.910156 221.484375 110.132812 C 219.980469 111.964844 217.851562 113.335938 215.773438 114.550781 Z M 216.566406 115.964844 C 216.511719 115.828125 216.453125 115.699219 216.390625 115.566406 C 216.6875 115.402344 216.980469 115.234375 217.269531 115.054688 C 217 115.335938 216.765625 115.640625 216.566406 115.964844 Z M 229.769531 132.761719 C 229.183594 131.101562 228.492188 129.480469 228.449219 127.703125 C 228.425781 126.78125 228.527344 126.070312 228.40625 125.308594 C 228.445312 125.355469 228.492188 125.40625 228.53125 125.453125 C 230.191406 127.621094 229.671875 130.226562 229.769531 132.761719 Z M 213.492188 139.898438 C 213.289062 138.226562 213.273438 137.675781 214.726562 135.53125 C 215.40625 134.523438 216.15625 134.167969 216.460938 132.847656 C 217.171875 129.769531 215.347656 126.078125 217.386719 123.253906 C 217.984375 122.421875 218.882812 121.953125 219.894531 121.75 C 222.148438 121.933594 224.527344 122.667969 226.308594 123.671875 C 226.355469 123.722656 226.414062 123.773438 226.460938 123.832031 C 228.140625 125.855469 227.308594 127.53125 227.867188 129.890625 C 228.902344 134.289062 229.96875 138.714844 231.03125 143.113281 C 230.46875 143.789062 229.867188 144.441406 229.242188 145.046875 C 226.835938 147.382812 224.101562 148.597656 220.761719 147.425781 C 216.910156 146.078125 215.183594 143.039062 213.492188 139.898438 Z M 210.136719 131.726562 C 210.503906 130.484375 210.460938 129.179688 210.570312 127.90625 C 210.578125 127.222656 210.644531 126.542969 210.730469 125.867188 C 210.84375 126.222656 210.992188 126.570312 211.183594 126.917969 C 211.28125 127.089844 211.425781 127.203125 211.585938 127.285156 C 211.527344 127.464844 211.457031 127.652344 211.398438 127.832031 C 210.742188 129.84375 210.257812 132.480469 209.320312 134.457031 C 208.796875 134.558594 208.308594 134.988281 208.355469 135.5625 C 208.367188 135.695312 208.382812 135.832031 208.398438 135.964844 C 207.328125 137.277344 205.960938 137.832031 204.382812 138.179688 C 207.003906 136.601562 209.328125 134.464844 210.136719 131.726562 Z M 213.726562 119.25 C 213.578125 119.335938 213.429688 119.433594 213.28125 119.53125 C 213.316406 118.546875 213.136719 117.527344 212.875 116.597656 C 213.582031 117.128906 213.773438 118.148438 213.726562 119.25 Z M 215.386719 129.015625 C 215.824219 132.78125 215.433594 130.730469 213.324219 135.285156 C 213.152344 135.660156 212.539062 135.761719 212.4375 136.207031 C 212.320312 136.730469 212.320312 137.289062 212.375 137.855469 C 212.234375 137.605469 212.085938 137.351562 211.9375 137.105469 C 212.167969 136.472656 212.367188 135.820312 212.582031 135.171875 C 213.441406 132.589844 214.339844 129.996094 215.164062 127.390625 C 215.203125 127.957031 215.339844 128.582031 215.386719 129.015625 Z M 180.710938 129.339844 C 180.621094 128.507812 180.53125 127.679688 180.441406 126.847656 C 181.246094 126.722656 182.039062 126.507812 182.8125 126.175781 C 183.519531 125.878906 183.933594 125.519531 184.21875 125.121094 C 185.378906 124.542969 186.332031 123.886719 187.257812 122.898438 C 188.351562 121.734375 189.089844 120.488281 190.167969 119.5 C 191.59375 118.894531 193.058594 118.335938 194.230469 117.6875 C 196.078125 117.398438 198.023438 117.5625 199.835938 117.855469 C 200.183594 117.910156 200.511719 117.816406 200.785156 117.644531 C 202.695312 118.867188 203.96875 119.570312 206.550781 118.480469 C 207.808594 117.953125 208.957031 116.785156 210.253906 116.421875 C 210.960938 116.226562 211.519531 116.183594 211.980469 116.25 C 212.152344 118.097656 212.304688 119.445312 211.542969 121.191406 C 211.152344 121.742188 210.863281 122.34375 210.691406 122.96875 C 210.332031 123.738281 210.054688 124.492188 209.902344 125.496094 C 209.625 127.390625 209.988281 129.703125 209.3125 131.5 C 208.128906 134.644531 205.492188 136.378906 202.683594 137.886719 C 199.957031 139.351562 197.066406 140.546875 193.914062 140.4375 C 192.710938 140.394531 191.410156 140.113281 190.265625 139.71875 C 187.515625 138.78125 186.886719 136.886719 185.921875 134.398438 C 185.632812 133.65625 185.636719 133.101562 185.054688 132.429688 C 183.808594 130.996094 181.773438 130.839844 180.710938 129.339844 Z M 149.460938 140.292969 C 149.976562 140.492188 150.617188 140.8125 151.300781 141.144531 C 150.144531 141.097656 149.039062 140.921875 148.128906 140.554688 C 148.027344 140.214844 147.640625 140.0625 147.289062 140.113281 C 146.582031 139.648438 146.085938 139 145.898438 138.113281 C 146.792969 139.09375 148.109375 139.769531 149.460938 140.292969 Z M 141.136719 131.320312 C 141.167969 130.726562 141.234375 130.289062 141.257812 129.882812 C 141.273438 130.183594 141.277344 130.496094 141.261719 130.828125 C 141.203125 132.042969 141.175781 132.96875 141.765625 134.058594 C 141.898438 134.3125 142.996094 135.769531 142.9375 135.507812 C 143.308594 137.175781 142.351562 138.039062 140.855469 138.460938 C 141.175781 138.125 141.433594 137.738281 141.589844 137.292969 C 142.175781 135.648438 141.03125 133.03125 141.136719 131.320312 Z M 128.472656 119.378906 C 126.28125 119.230469 124.230469 119.84375 122.734375 121.621094 C 122.621094 121.757812 122.53125 121.894531 122.453125 122.035156 C 122.53125 121.0625 122.8125 120.148438 123.882812 119.445312 C 125.171875 118.597656 126.804688 118.777344 128.472656 119.378906 Z M 140.804688 127.707031 C 140.640625 127.347656 140.441406 126.984375 140.207031 126.613281 C 140.441406 126.949219 140.644531 127.308594 140.804688 127.707031 Z M 183.453125 86.933594 C 183.152344 86.867188 182.835938 86.863281 182.484375 86.808594 C 180.769531 86.539062 179.613281 85.804688 178.523438 84.617188 C 179.046875 85.101562 179.605469 85.546875 180.285156 85.847656 C 181.8125 86.527344 182.578125 86.1875 183.453125 86.933594 Z M 192.390625 96.378906 C 192.328125 96.269531 192.261719 96.175781 192.199219 96.070312 C 193.34375 94.398438 193.34375 92.3125 194.585938 90.542969 C 194.792969 90.246094 195.082031 89.984375 195.414062 89.742188 C 193.8125 92.03125 193.367188 95.132812 193.191406 98.183594 C 192.964844 97.5625 192.710938 96.953125 192.390625 96.378906 Z M 169.578125 118.304688 C 169.445312 116.742188 169.753906 115.113281 169.351562 113.570312 C 169.113281 112.667969 168.699219 111.84375 168.167969 111.105469 C 169.691406 110.117188 170.101562 107.519531 170.355469 105.910156 C 170.644531 104.070312 170.367188 102.597656 170.050781 100.792969 C 169.332031 99.324219 169.46875 98.074219 170.429688 97.039062 C 170.203125 97.6875 170.25 98.488281 170.714844 99.464844 C 171.15625 100.394531 172.367188 100.144531 172.863281 99.464844 C 173.929688 98.011719 177.871094 98.878906 179.339844 98.921875 C 181.25 98.980469 183.78125 98.578125 185.328125 99.847656 C 186.769531 101.03125 188.449219 100.046875 188.621094 98.660156 C 189.621094 100.5625 189.878906 102.808594 190.394531 104.871094 C 190.726562 106.195312 191.140625 107.21875 191.75 108.414062 C 192.964844 110.78125 194.609375 112.175781 192.640625 114.429688 C 190.519531 114.867188 188.53125 115.894531 186.929688 117.550781 C 185.511719 118.097656 184.210938 118.765625 183.386719 119.824219 C 182.785156 120.597656 182.40625 121.363281 181.914062 121.996094 C 181.160156 122.238281 180.390625 122.457031 179.730469 122.804688 C 179.410156 122.972656 179.097656 123.179688 178.792969 123.410156 C 177.070312 123.425781 175.082031 122.664062 173.683594 121.878906 C 172.03125 120.953125 170.683594 119.722656 169.578125 118.304688 Z M 172.214844 94.699219 C 173.777344 94.015625 175.558594 93.734375 177.183594 93.667969 C 177.40625 93.65625 177.640625 93.648438 177.871094 93.640625 C 178.296875 93.683594 178.710938 93.734375 179.101562 93.785156 C 180.691406 93.976562 182.417969 94.273438 184 94.855469 C 181.300781 94.328125 178.144531 94.664062 175.84375 94.640625 C 174.433594 94.632812 172.738281 94.917969 171.589844 95.65625 C 171.757812 95.277344 171.96875 94.960938 172.214844 94.699219 Z M 185.074219 89.390625 C 185.429688 90.160156 185.730469 90.9375 186.097656 91.683594 C 185.722656 91.574219 185.339844 91.472656 184.953125 91.390625 C 185.148438 90.820312 185.175781 90.09375 185.074219 89.390625 Z M 168.671875 104.113281 C 168.3125 101.765625 167.667969 99.832031 168.695312 97.835938 C 168.679688 98.027344 168.667969 98.226562 168.667969 98.429688 C 168.65625 102.230469 170.734375 107.296875 167.839844 110.679688 C 167.785156 110.609375 167.722656 110.546875 167.660156 110.480469 C 168.535156 108.484375 169.011719 106.367188 168.671875 104.113281 Z M 168.4375 123.59375 C 167.550781 122.214844 166.199219 121.308594 165.515625 119.738281 C 164.949219 118.460938 164.808594 117.140625 164.476562 115.800781 C 163.652344 112.484375 161.628906 110.707031 158.453125 109.609375 C 160.226562 109.628906 162 109.910156 163.3125 110.554688 C 164.226562 111.003906 164.902344 111.574219 165.40625 112.246094 C 165.207031 112.378906 165.050781 112.601562 165.027344 112.90625 C 164.835938 115.46875 165.703125 118.050781 167.222656 120.289062 C 167.332031 120.730469 167.472656 121.175781 167.675781 121.621094 C 168.035156 122.402344 168.546875 123.09375 168.980469 123.832031 C 170.117188 125.765625 170.886719 126.042969 169.359375 127.898438 C 169.425781 127.757812 169.496094 127.621094 169.546875 127.457031 C 170.03125 125.957031 169.199219 124.773438 168.4375 123.59375 Z M 163.886719 132.542969 C 163.335938 133.847656 163.429688 135.335938 162.910156 136.640625 C 162.847656 136.792969 162.769531 136.929688 162.695312 137.074219 C 162.8125 136.105469 162.53125 135.152344 162.707031 134.125 C 163.039062 132.210938 163.972656 131.34375 165.050781 130.773438 C 164.515625 131.253906 164.171875 131.878906 163.886719 132.542969 Z M 145.753906 135.039062 C 145.152344 133.582031 144.070312 133.441406 143.878906 131.453125 C 143.753906 130.203125 144.339844 129 144.175781 127.710938 C 144.144531 127.464844 144.097656 127.230469 144.039062 127 C 144.453125 126.074219 144.398438 125.039062 144.132812 123.835938 C 144.011719 123.289062 143.859375 122.804688 143.714844 122.339844 C 145.117188 119.859375 146.394531 117.378906 147.988281 114.996094 C 148.15625 114.742188 148.335938 114.472656 148.519531 114.1875 C 150.367188 112.769531 151.648438 110.792969 153.929688 110.152344 C 154.386719 110.023438 154.898438 109.921875 155.425781 109.835938 C 156.359375 109.980469 157.289062 110.246094 158.066406 110.5 C 162.972656 112.117188 162.984375 115.34375 164.460938 119.492188 C 165.296875 121.839844 170.46875 126.449219 167.367188 128.78125 C 166.019531 129.796875 164.082031 129.695312 162.824219 130.9375 C 161.835938 131.914062 161.972656 132.851562 161.695312 134.125 C 161.246094 136.203125 161.011719 138.046875 159.03125 139.347656 C 157.15625 140.578125 155.800781 140.988281 153.289062 140.445312 C 150.679688 139.882812 147.5625 138.90625 146.03125 136.683594 C 146.070312 136.179688 146 135.632812 145.753906 135.039062 Z M 143.386719 118.648438 C 143.792969 117.011719 144.621094 116.359375 145.730469 115.773438 C 144.757812 117.335938 143.910156 118.980469 143.28125 120.597656 C 143.195312 120.003906 143.203125 119.378906 143.386719 118.648438 Z M 194.359375 114.203125 C 194.246094 114.210938 194.136719 114.222656 194.027344 114.230469 C 194.699219 112.953125 194.863281 111.464844 194.175781 109.921875 C 193.355469 108.089844 191.96875 106.601562 191.375 104.597656 C 190.945312 103.128906 190.722656 101.605469 190.226562 100.148438 C 189.503906 98.03125 188.445312 96.234375 186.472656 95.09375 C 186.089844 94.871094 185.652344 94.667969 185.191406 94.46875 C 187.359375 95.179688 189.214844 96.4375 190.164062 98.613281 C 191.425781 101.507812 191.59375 104.800781 193.117188 107.601562 C 193.757812 108.789062 194.796875 109.46875 195.507812 110.535156 C 196.609375 112.175781 195.683594 113.277344 194.359375 114.203125 Z M 189.695312 61.128906 C 189.535156 61.074219 189.375 61.023438 189.214844 60.96875 C 187.003906 60.179688 186.519531 59.015625 185.304688 57.316406 C 184.789062 56.597656 184.164062 55.9375 183.386719 55.535156 C 186.046875 55.148438 187.96875 58.4375 189.695312 61.128906 Z M 175.644531 62.476562 C 175.867188 62.183594 176.089844 61.890625 176.328125 61.585938 C 177.160156 60.511719 177.707031 59.523438 178.167969 58.496094 C 178.75 58.183594 179.273438 57.753906 179.761719 57.28125 C 180.242188 57.363281 180.738281 57.304688 181.097656 57.03125 C 181.355469 56.835938 181.617188 56.640625 181.878906 56.445312 C 181.910156 56.421875 181.933594 56.398438 181.960938 56.375 C 182.71875 56.523438 183.546875 57.007812 184.441406 57.980469 C 185.503906 59.132812 185.453125 60.488281 186.917969 61.390625 C 188.054688 62.09375 189.410156 62.523438 190.863281 62.835938 C 191.21875 63.308594 191.574219 63.707031 191.929688 63.984375 C 192.597656 64.511719 193.410156 64.585938 194.085938 64.996094 C 194.863281 65.46875 195.183594 65.925781 195.832031 66.527344 C 195.976562 66.660156 198.347656 67.902344 199.230469 68.085938 C 199.53125 68.382812 199.832031 68.675781 200.132812 68.964844 C 201.457031 70.230469 203.46875 69.433594 203.871094 67.917969 C 204.070312 68.261719 204.246094 68.632812 204.394531 69.039062 C 205.378906 71.710938 205.3125 75.53125 204.964844 78.410156 C 204.820312 79.644531 204.523438 80.613281 204.109375 81.410156 C 203.429688 81.664062 202.753906 81.976562 202.09375 82.351562 C 200.242188 83.394531 198.882812 84.558594 196.804688 85.214844 C 195.449219 85.644531 194.179688 85.90625 193.050781 86.835938 C 191.199219 88.367188 190.46875 91.039062 189.945312 93.535156 C 189.679688 93.335938 189.40625 93.15625 189.128906 92.984375 C 189.132812 92.96875 189.144531 92.957031 189.144531 92.9375 C 189.828125 89.617188 187.496094 84.40625 184.316406 82.921875 C 183.011719 82.316406 182.324219 82.933594 180.683594 81.859375 C 179.746094 81.246094 179.023438 80.207031 178.101562 79.527344 C 177.140625 78.828125 176.097656 78.285156 175.003906 77.851562 C 175.53125 76.5625 176.511719 75.519531 176.496094 73.917969 C 176.476562 71.964844 175.226562 70.261719 174.835938 68.398438 C 174.382812 66.253906 174.804688 64.308594 175.644531 62.476562 Z M 156.929688 84.722656 C 158.085938 82.550781 159.738281 82.6875 161.785156 81.699219 C 162.578125 81.316406 163.230469 80.675781 164.003906 80.304688 C 165.742188 79.472656 167.328125 79.566406 169.25 79.875 C 171.398438 80.222656 173.683594 80.894531 175.5625 82.070312 C 176.808594 83.570312 177.703125 85.425781 179.285156 86.644531 C 180.238281 87.382812 180.929688 87.464844 182.027344 87.792969 C 183.820312 88.332031 184.507812 89.703125 183.714844 91.164062 C 182.300781 90.941406 180.851562 90.832031 179.441406 90.765625 C 174.773438 90.542969 169.511719 91.472656 166.78125 95.714844 C 165.71875 97.359375 165.175781 99.441406 165.5625 101.386719 C 165.964844 103.410156 166.863281 104.644531 166.765625 106.875 C 166.734375 107.6875 166.589844 108.492188 166.394531 109.296875 C 165.027344 108.238281 163.261719 107.578125 161.371094 107.246094 C 164.863281 103.273438 161.691406 98.5625 158.390625 94.75 C 157.328125 93.519531 155.945312 92.082031 154.375 90.796875 C 156.53125 89.605469 155.695312 87.042969 156.929688 84.722656 Z M 143.496094 92.859375 C 143.621094 92.398438 143.742188 91.949219 144.027344 91.546875 C 144.03125 91.542969 144.039062 91.539062 144.039062 91.53125 C 143.820312 91.957031 143.722656 92.4375 143.496094 92.859375 Z M 144.5 92.898438 C 145.753906 91.148438 147.816406 91.757812 149.503906 92.839844 C 148.019531 92.675781 146.566406 92.929688 145.445312 94.066406 C 144.261719 95.269531 144.800781 97.945312 143.179688 98.265625 C 142.171875 98.464844 140.671875 97.714844 139.558594 97.574219 C 140.078125 97.359375 140.609375 97.148438 141.144531 96.929688 C 143.546875 95.929688 143.160156 94.765625 144.5 92.898438 Z M 132.320312 116.246094 C 133.476562 115.554688 135.136719 114.6875 134.945312 113.09375 C 134.882812 112.566406 134.621094 112.160156 134.269531 111.910156 C 134.261719 111.855469 134.261719 111.800781 134.253906 111.746094 C 134.058594 110.082031 133.125 108.789062 131.957031 107.625 C 132.242188 106.289062 132.117188 104.847656 132.105469 103.417969 C 132.449219 102.480469 132.945312 101.703125 133.558594 101.046875 C 133.652344 101.328125 133.976562 101.515625 134.285156 101.445312 C 135.171875 101.242188 135.992188 100.789062 136.875 100.613281 C 138.6875 100.265625 139.746094 100.925781 141.304688 101.5 C 142.738281 102.027344 144.039062 102.316406 145.535156 101.769531 C 146.777344 101.316406 147.742188 100.484375 148.171875 99.207031 C 148.394531 98.550781 148.167969 97.75 148.605469 97.195312 C 149.015625 96.675781 149.664062 96.886719 150.375 96.699219 C 151.160156 96.488281 151.757812 95.550781 151.480469 94.746094 C 151.429688 94.601562 151.378906 94.457031 151.328125 94.3125 C 151.328125 94.304688 151.324219 94.300781 151.320312 94.292969 C 152.402344 95.34375 153.355469 96.515625 154.320312 97.664062 C 156.835938 100.675781 160.160156 103.433594 157.230469 107.019531 C 155.25 107.128906 153.335938 107.535156 151.769531 108.175781 C 149.539062 109.082031 149.019531 111.117188 147.089844 112.449219 C 145.488281 113.558594 143.441406 114.007812 142.109375 115.519531 C 139.679688 118.285156 141.730469 121.292969 142.300781 124.105469 C 141.972656 123.773438 141.613281 123.460938 141.238281 123.160156 C 139.515625 121.800781 135.078125 118.898438 130.664062 117.222656 C 131.21875 116.910156 131.769531 116.574219 132.320312 116.246094 Z M 117.457031 141.324219 C 117.441406 141.3125 117.429688 141.292969 117.414062 141.28125 C 116.636719 140.621094 116.054688 139.984375 115.648438 139.378906 C 115.625 139.171875 115.621094 138.953125 115.640625 138.714844 C 114.667969 137.265625 114.816406 136.613281 116.085938 136.757812 C 117.035156 136.164062 117.929688 136.640625 118.558594 135.503906 C 119.449219 133.90625 117.835938 133.429688 117.566406 132.03125 C 117.433594 128.921875 118.179688 127.492188 119.808594 127.730469 C 120.15625 127.855469 120.511719 127.890625 120.859375 127.839844 C 121.035156 127.652344 121.410156 127.539062 121.617188 127.320312 C 121.828125 127.101562 121.816406 126.699219 121.957031 126.441406 C 123.476562 123.585938 121.046875 121.921875 125.667969 120.414062 C 127.53125 119.804688 129.621094 120.113281 131.597656 120.886719 C 132.925781 121.648438 134.140625 122.449219 135.058594 122.945312 C 135.382812 123.121094 135.699219 123.292969 136.011719 123.460938 C 136.566406 123.90625 137.078125 124.359375 137.519531 124.8125 C 139.683594 127.015625 140.183594 128.085938 139.953125 131.566406 C 139.917969 132.074219 139.675781 132.957031 139.632812 133.5 C 139.59375 133.914062 140.046875 134.296875 140.042969 134.679688 C 140.007812 137.234375 139.15625 138.300781 137.828125 138.84375 C 135.472656 138.898438 132.980469 138.609375 131.9375 138.726562 C 126.484375 139.335938 122.417969 142.917969 117.457031 141.324219 Z M 175.691406 152.949219 C 170.449219 151.992188 165.210938 151.042969 159.972656 150.078125 C 158.195312 149.304688 156.398438 148.621094 154.46875 148.242188 C 151.945312 147.742188 149.46875 147.90625 148.425781 145.035156 C 148.28125 144.640625 148.1875 144.1875 148.128906 143.71875 C 152.949219 144.605469 159.703125 143.324219 162.207031 141.757812 C 163.203125 141.128906 164.039062 140.335938 164.679688 139.398438 C 166.105469 139.484375 167.347656 139.929688 168.988281 140.75 C 169.046875 140.773438 169.09375 140.800781 169.148438 140.828125 C 169.132812 140.835938 169.117188 140.839844 169.101562 140.84375 C 168.953125 140.910156 169.03125 141.15625 169.183594 141.148438 C 169.375 141.140625 169.558594 141.140625 169.738281 141.140625 C 170.414062 141.503906 171.011719 141.804688 171.917969 141.898438 C 172.230469 141.929688 172.527344 141.921875 172.820312 141.902344 C 173.355469 142.1875 173.882812 142.554688 174.441406 143.007812 C 174.960938 143.429688 175.292969 143.527344 175.871094 143.761719 C 178.351562 144.746094 179.460938 145.625 180.59375 148.066406 C 181.15625 149.28125 181.351562 150.519531 181.5625 151.769531 C 181.03125 151.835938 180.558594 151.890625 180.230469 151.960938 C 178.722656 152.289062 177.210938 152.652344 175.691406 152.949219 Z M 176.199219 157.148438 C 175.949219 156.980469 175.683594 156.828125 175.40625 156.6875 C 175.691406 156.75 175.984375 156.808594 176.277344 156.871094 C 176.25 156.960938 176.226562 157.054688 176.199219 157.148438 Z M 174.894531 161.910156 C 174.933594 161.917969 174.972656 161.933594 175.011719 161.9375 C 174.992188 162.027344 174.96875 162.113281 174.949219 162.199219 C 174.933594 162.105469 174.914062 162.007812 174.894531 161.910156 Z M 177.261719 337.964844 C 176.804688 336.40625 175.808594 334.855469 175.449219 333.378906 C 174.949219 331.304688 175.117188 329.457031 175.398438 327.542969 C 175.546875 331.144531 176.089844 334.769531 177.542969 337.980469 C 177.449219 337.972656 177.355469 337.96875 177.261719 337.964844 Z M 172.28125 139.238281 C 170.382812 139.117188 168.59375 137.460938 166.632812 137.195312 C 166.320312 137.152344 166.023438 137.132812 165.726562 137.125 C 165.925781 136.300781 165.910156 135.34375 166.21875 134.597656 C 167.144531 132.335938 168.960938 133.152344 170.582031 132.253906 C 173.3125 130.738281 173.867188 128.078125 172.921875 125.382812 C 174 125.953125 175.132812 126.382812 176.289062 126.652344 C 176.171875 126.964844 176.074219 127.28125 176.015625 127.605469 C 175.664062 129.632812 176.535156 130.878906 177.90625 132.210938 C 179.136719 133.40625 179.636719 133.4375 179.820312 135.25 C 179.890625 135.945312 179.78125 136.636719 179.769531 137.332031 C 177.339844 137.160156 174.300781 139.367188 172.28125 139.238281 Z M 222.65625 157.125 C 222.621094 157.097656 222.589844 157.066406 222.554688 157.039062 C 222.589844 157.019531 222.632812 156.996094 222.667969 156.976562 C 222.664062 157.027344 222.660156 157.074219 222.65625 157.125 Z M 200.605469 61.34375 C 200.632812 61.28125 200.65625 61.222656 200.675781 61.15625 C 201.117188 59.578125 203.183594 59.382812 205.066406 59.382812 C 203.5625 59.816406 202.269531 60.617188 201.507812 62.035156 C 201.179688 61.820312 200.875 61.597656 200.605469 61.34375 Z M 184.09375 44.644531 C 184.019531 44.527344 183.925781 44.425781 183.84375 44.324219 C 184.78125 44.523438 185.496094 44.609375 186.253906 45.667969 C 186.71875 46.320312 186.792969 46.703125 186.824219 47.113281 C 186.019531 47.15625 185.214844 47.257812 184.421875 47.414062 C 184.769531 46.640625 184.742188 45.714844 184.09375 44.644531 Z M 169.503906 73.140625 C 169.664062 74.273438 169.617188 75.3125 169.449219 76.402344 C 168.679688 76.261719 167.898438 76.15625 167.125 76.132812 C 168.277344 75.386719 169.222656 74.433594 169.503906 73.140625 Z M 153.261719 85.460938 C 153.402344 84.566406 153.808594 83.835938 154.363281 83.222656 C 153.683594 85.339844 154.40625 88.304688 152.9375 89.707031 C 152.730469 89.5625 152.519531 89.421875 152.304688 89.285156 C 152.609375 88.988281 152.875 88.605469 153.066406 88.136719 C 153.433594 87.261719 153.121094 86.347656 153.261719 85.460938 Z M 184.609375 337.636719 C 181.996094 332.625 182.324219 326.894531 182.523438 321.242188 C 182.609375 318.878906 182.691406 316.511719 182.777344 314.144531 C 183.261719 321.988281 183.867188 329.816406 184.609375 337.636719 Z M 250.246094 124.242188 C 249.898438 124.890625 247.984375 125.488281 246.1875 125.941406 C 247.847656 125.050781 248.976562 123.535156 249.828125 121.773438 C 250.097656 122.824219 250.421875 123.910156 250.246094 124.242188 Z M 231.386719 87.339844 C 234.386719 86.453125 237.34375 86.28125 239.503906 88.984375 C 241.03125 90.898438 242.273438 93.492188 243.394531 95.675781 C 243.761719 96.394531 243.996094 97.121094 244.183594 97.847656 C 242.785156 96.71875 241.238281 95.871094 239.429688 95.832031 C 236.753906 95.773438 229.910156 95.875 226.296875 98.097656 C 226.191406 96.472656 225.804688 94.910156 224.664062 93.394531 C 224.164062 92.726562 223.601562 92.152344 223.019531 91.601562 C 224.015625 88.816406 228.894531 88.070312 231.386719 87.339844 Z M 218.457031 63.640625 C 218.789062 64.265625 219.117188 64.652344 219.488281 64.980469 C 219.964844 65.824219 220.375 66.683594 220.71875 67.476562 C 221.90625 70.222656 221.175781 72.660156 222.175781 75.386719 C 222.359375 75.890625 225.601562 82.675781 225.613281 85.917969 C 225.394531 86.015625 225.175781 86.109375 224.960938 86.207031 C 223.171875 87.011719 221.304688 88.117188 220.933594 89.796875 C 219.523438 88.625 218.132812 87.429688 217.109375 85.734375 C 215.453125 82.984375 213.058594 81.359375 210.386719 80.816406 C 211.414062 77.667969 211.476562 73.882812 210.660156 71.519531 C 209.484375 68.089844 207.070312 65.085938 203.875 63.355469 C 203.175781 62.976562 202.5625 62.664062 202.015625 62.347656 C 204.699219 59.070312 210.65625 58.921875 214.507812 60.105469 C 215.914062 60.539062 217.121094 61.613281 218.132812 62.921875 C 218.230469 63.164062 218.332031 63.410156 218.457031 63.640625 Z M 215.09375 58.445312 C 216.453125 58.808594 217.019531 59.683594 217.40625 60.71875 C 215.832031 59.539062 213.832031 59.183594 211.90625 59.039062 C 211.253906 58.988281 210.542969 58.945312 209.8125 58.921875 C 211.566406 58.488281 213.410156 57.996094 215.09375 58.445312 Z M 205.269531 33.253906 C 210.164062 35.03125 210.527344 40.234375 211.925781 44.484375 C 212.667969 46.746094 214.042969 48.585938 213.429688 51.140625 C 212.9375 53.203125 211.601562 54.488281 209.929688 55.410156 C 208.128906 55.800781 206.421875 56.066406 204.582031 56.199219 C 203.382812 56.292969 202.195312 56.148438 201.054688 56.585938 C 200.097656 56.953125 199.359375 57.480469 198.859375 58.167969 C 198.375 56.367188 198.25 54.515625 197.523438 52.777344 C 196.28125 49.816406 193.789062 48.136719 190.886719 47.449219 C 190.761719 46 191.054688 44.566406 190.007812 43.234375 C 188.808594 41.707031 186.976562 41.378906 185.304688 40.808594 C 185.777344 37.429688 187.332031 36.003906 189.746094 33.941406 C 191.105469 32.777344 192.929688 30.53125 194.566406 29.839844 C 199.421875 27.789062 199.28125 30.5 201.839844 32.089844 C 203.066406 32.855469 203.953125 32.777344 205.269531 33.253906 Z M 159.558594 42.394531 C 160.457031 41.601562 161.402344 41.277344 162.136719 40.265625 C 162.488281 39.785156 162.65625 38.894531 163.058594 38.445312 C 164.472656 36.871094 166.824219 36.050781 168.835938 36.179688 C 170.617188 36.292969 173.078125 36.214844 175.042969 36.707031 C 176.238281 37.367188 177.246094 38.214844 178.160156 39.316406 C 178.441406 40.09375 178.632812 40.921875 179.199219 41.648438 C 179.753906 42.359375 180.527344 42.808594 181.214844 43.367188 C 181.816406 43.855469 183.007812 44.484375 183.296875 45.257812 C 183.722656 46.402344 183.496094 47.195312 182.957031 47.769531 C 181.667969 48.140625 180.445312 48.652344 179.347656 49.292969 C 179.28125 49.304688 179.214844 49.324219 179.15625 49.339844 C 179.03125 49.371094 178.949219 49.457031 178.902344 49.558594 C 178.519531 49.800781 178.152344 50.058594 177.8125 50.328125 C 176.640625 51.257812 176.300781 52.269531 176.074219 53.734375 C 175.566406 57.0625 174.148438 58.902344 172.203125 61.558594 C 171.265625 62.84375 170.40625 64.308594 170.011719 65.804688 C 169.511719 65.457031 168.960938 65.203125 168.359375 65.070312 C 166.234375 64.59375 164.75 64.882812 162.824219 63.578125 C 161.128906 62.433594 159.757812 60.777344 158.441406 59.230469 C 157.917969 58.613281 157.410156 58.011719 156.886719 57.445312 C 157.46875 55.832031 157.800781 54.210938 157.824219 52.472656 C 157.875 48.796875 156.042969 45.496094 159.558594 42.394531 Z M 137.820312 78.296875 C 138.59375 76.320312 140.019531 74.566406 140.15625 72.398438 C 140.351562 69.273438 137.550781 67.183594 137.207031 64.25 C 137.144531 63.699219 137.183594 63.195312 137.289062 62.726562 C 138.433594 61.574219 140.164062 60.859375 141.667969 59.691406 C 143.9375 57.9375 145.1875 57.515625 148.226562 57.621094 C 148.257812 57.625 148.289062 57.625 148.320312 57.625 C 149.691406 58.023438 150.949219 58.816406 152.171875 59.925781 C 154.082031 61.648438 155.636719 63.644531 157.757812 65.140625 C 159.0625 66.058594 160.457031 66.800781 161.886719 67.5 C 163.207031 68.144531 165.390625 68.601562 166.472656 69.585938 C 171.679688 74.335938 162.390625 77.0625 159.46875 78.527344 C 157.539062 79.492188 154.738281 79.40625 153.195312 81.144531 C 152.640625 81.765625 152.375 82.382812 152.171875 83.179688 C 152.066406 83.578125 152.503906 87.792969 151.269531 88.667969 C 149.671875 87.796875 147.988281 87.230469 146.308594 87.234375 C 144.835938 84.191406 141.691406 83.078125 138.5 82.136719 C 138.097656 82.015625 137.765625 81.882812 137.453125 81.746094 C 137.648438 80.589844 137.773438 79.441406 137.820312 78.296875 Z M 120.207031 83.855469 C 120.273438 83.832031 120.34375 83.8125 120.410156 83.789062 C 121.441406 83.898438 123.097656 84.019531 123.410156 84.035156 C 123.519531 84.039062 123.605469 84.035156 123.699219 84.035156 C 123.378906 84.21875 123.0625 84.414062 122.757812 84.628906 C 122.636719 84.714844 122.050781 85.289062 121.511719 85.816406 C 121.375 85.675781 121.207031 85.5625 120.964844 85.511719 C 120.902344 85.5 120.84375 85.488281 120.785156 85.476562 C 120.257812 85.375 119.570312 85.433594 119.207031 85.894531 C 118.5625 86.710938 118.257812 87.390625 118.28125 88.457031 C 118.300781 89.1875 118.824219 90.0625 119.605469 90.195312 C 121.144531 90.460938 122.203125 89.96875 123.289062 89.058594 C 125.074219 89.382812 127.089844 88.449219 128.730469 87.84375 C 129.824219 87.441406 130.855469 86.546875 131.042969 85.472656 C 131.746094 85.527344 132.472656 85.425781 133.148438 85.457031 C 134.910156 85.4375 136.570312 85.847656 138.121094 86.6875 C 140.914062 90.347656 140.511719 92.449219 136.914062 92.988281 C 136.398438 92.898438 135.96875 93.609375 136.429688 93.914062 C 134.707031 94.34375 133.078125 94.84375 131.761719 96.257812 C 130.0625 98.074219 128.925781 101.933594 129.203125 105.148438 C 128.125 104.183594 127.136719 103.175781 126.550781 101.960938 C 125.183594 99.125 124.671875 97.949219 121.5 98.074219 C 121.273438 98.234375 121.042969 98.351562 120.816406 98.4375 C 119.734375 97.808594 118.933594 96.992188 118.75 95.40625 C 118.535156 93.539062 118.519531 91.640625 118.402344 89.765625 C 118.324219 88.492188 117.800781 86.464844 118.300781 85.03125 C 118.761719 84.570312 119.371094 84.171875 120.207031 83.855469 Z M 101.078125 114.082031 C 101.03125 114.03125 100.980469 113.992188 100.929688 113.945312 C 100.910156 113.894531 100.894531 113.835938 100.875 113.78125 C 99.964844 111.355469 99.203125 108.765625 99.957031 106.742188 C 100.351562 106.335938 100.722656 105.96875 101.015625 105.660156 C 101.449219 105.199219 101.910156 104.722656 102.390625 104.238281 C 102.765625 104.058594 103.167969 103.886719 103.636719 103.742188 C 103.753906 103.707031 103.761719 103.585938 103.695312 103.511719 C 105.371094 103.601562 107.125 104.449219 108.6875 104.644531 C 110.25 104.847656 110.527344 104.484375 111.789062 104.238281 C 113.796875 103.839844 115.167969 104.128906 117.15625 104.402344 C 118.753906 104.621094 119.246094 103.417969 120.585938 103.453125 C 121.628906 103.476562 122.597656 102.25 122.210938 101.25 C 122.339844 101.25 122.472656 101.257812 122.609375 101.300781 C 123.855469 101.667969 123.992188 103.5625 124.585938 104.65625 C 124.972656 105.375 125.457031 105.984375 126.003906 106.558594 C 127.800781 109.765625 127.296875 115.054688 123.480469 116.003906 C 122.320312 116.296875 122.320312 115.605469 121.300781 116.335938 C 120.496094 116.910156 120.273438 118.011719 120.167969 118.914062 C 120.167969 118.921875 120.167969 118.929688 120.167969 118.9375 C 119.964844 119.464844 119.816406 120.070312 119.734375 120.765625 C 119.675781 121.257812 119.804688 121.757812 119.832031 122.246094 C 118.195312 125.78125 115.925781 122.578125 114.449219 121.804688 C 112.238281 120.652344 109.753906 121.582031 107.425781 121.425781 C 107.074219 121.640625 106.738281 121.742188 106.417969 121.742188 C 106.128906 121.679688 105.863281 121.609375 105.613281 121.523438 C 105.273438 121.3125 104.953125 120.960938 104.65625 120.460938 C 104.234375 120.316406 103.878906 120.121094 103.570312 119.886719 C 102.507812 118.164062 102.507812 115.699219 101.078125 114.082031 Z M 112.21875 122.574219 C 113.289062 122.703125 114.183594 122.851562 114.414062 122.972656 C 115.734375 123.664062 117.269531 125.121094 118.832031 125.035156 C 118.386719 125.25 117.785156 125.273438 116.964844 125.613281 C 116.632812 125.753906 116.3125 125.917969 116 126.097656 C 115.785156 123.929688 114.1875 123.027344 112.21875 122.574219 Z M 92.335938 140.375 C 92.238281 139.996094 92.011719 139.722656 91.730469 139.542969 C 91.796875 139.515625 91.867188 139.480469 91.941406 139.449219 C 95.320312 141.214844 99.898438 141.488281 103.480469 142.226562 C 103.769531 142.289062 104.0625 142.34375 104.347656 142.402344 C 104.339844 142.464844 104.332031 142.527344 104.335938 142.59375 C 104.398438 144.664062 104.851562 146.652344 105.074219 148.679688 C 101.027344 147.449219 97.050781 146.035156 93.269531 144.191406 C 92.972656 142.914062 92.664062 141.640625 92.335938 140.375 Z M 260.339844 156.371094 C 261.691406 148.539062 263.714844 140.46875 264.183594 132.5 C 264.664062 132.441406 265.125 132.175781 265.441406 131.613281 C 266.730469 129.3125 268.632812 127.160156 267.480469 124.53125 C 266.609375 122.542969 265.761719 120.792969 265.191406 118.691406 C 264.839844 117.386719 264.574219 116.308594 263.570312 115.328125 C 262.636719 114.421875 261.386719 113.921875 260.441406 113.003906 C 259.476562 112.066406 258.832031 110.617188 257.621094 109.9375 C 256.988281 109.578125 256.347656 109.457031 255.753906 109.535156 C 254.128906 106.507812 250.660156 104.089844 248.328125 101.867188 C 248.285156 101.824219 248.238281 101.777344 248.195312 101.734375 C 249.226562 99.378906 247.734375 95.949219 246.625 93.785156 C 246.234375 93.023438 245.824219 92.148438 245.382812 91.238281 C 248.507812 88.390625 250.957031 84.273438 249.21875 80.121094 C 248.414062 78.195312 247.738281 76.871094 247.402344 74.8125 C 247.273438 74.023438 247.238281 73.210938 246.96875 72.449219 C 246.191406 70.269531 244.589844 70.039062 243.15625 68.542969 C 241.597656 66.90625 241.289062 65.332031 238.9375 64.652344 C 237.835938 64.332031 236.699219 64.496094 235.582031 64.347656 C 234.191406 64.160156 232.933594 63.503906 231.550781 63.359375 C 229.429688 63.144531 227.460938 64.027344 226.160156 65.503906 C 225.984375 65.0625 225.65625 64.613281 225.0625 64.113281 C 224.273438 63.453125 223.140625 63.332031 222.378906 62.6875 C 221.222656 61.714844 221.296875 60.351562 220.757812 59.085938 C 219.921875 57.148438 218.585938 56.015625 217 55.429688 C 218.484375 54.277344 219.335938 52.515625 219.21875 50.445312 C 219.132812 48.894531 218.375 47.90625 217.714844 46.570312 C 216.648438 44.410156 217.386719 43.179688 217.3125 40.996094 C 217.195312 37.613281 214.164062 35.695312 212.253906 33.328125 C 211.332031 32.183594 210.671875 30.898438 209.410156 30.082031 C 207.617188 28.925781 205.691406 29.074219 203.9375 27.507812 C 199.039062 23.125 193.789062 21.464844 189.429688 27.527344 C 187.351562 30.410156 181.949219 34.367188 181.972656 38.320312 C 180.449219 36.246094 179.558594 34.742188 176.828125 33.453125 C 174.046875 32.140625 170.828125 30.925781 167.703125 31.367188 C 164.894531 31.765625 162.425781 33.367188 160.613281 35.515625 C 159.773438 36.511719 159.039062 38.503906 158 39.183594 C 156.9375 39.882812 155.617188 39.308594 154.480469 39.695312 C 152.113281 40.503906 152.304688 42.773438 152.425781 44.839844 C 152.609375 48.105469 152.722656 51.449219 153.1875 54.707031 C 152.546875 54.460938 151.851562 54.296875 151.066406 54.246094 C 148.40625 54.070312 144.1875 53.785156 141.851562 55.363281 C 140.351562 56.378906 139.101562 57.761719 137.566406 58.792969 C 136.507812 59.507812 135.410156 60.195312 134.550781 61.15625 C 132.589844 63.359375 132.824219 65.773438 133.585938 68.453125 C 134.691406 72.367188 134.929688 76.199219 135.351562 80.132812 C 135.074219 79.8125 134.792969 79.457031 134.464844 79.054688 C 134.148438 78.660156 133.761719 78.285156 133.292969 78.070312 C 131.835938 77.40625 130.121094 78.171875 128.703125 78.558594 C 124.664062 79.660156 118.960938 80.144531 115.722656 83.082031 C 111.621094 86.800781 116.070312 91.738281 113.960938 95.632812 C 112.242188 95.320312 110.429688 95.644531 108.808594 96.203125 C 104.078125 97.828125 100.046875 101.734375 96.777344 105.367188 C 94.75 107.621094 91.796875 111.484375 94.441406 114.40625 C 96.242188 116.398438 98.09375 115.558594 99.324219 118.636719 C 100 120.320312 100.132812 121.84375 101.554688 123.15625 C 102.59375 124.121094 103.941406 124.503906 105.378906 124.691406 C 102.886719 125.941406 100.519531 127.636719 98.714844 129 C 96.898438 130.371094 95.226562 131.90625 93.507812 133.398438 C 91.679688 134.988281 88.421875 136.75 88.648438 139.480469 C 88.65625 139.613281 88.726562 139.707031 88.851562 139.75 C 89.0625 139.832031 89.28125 139.878906 89.503906 139.910156 C 89.339844 140.140625 89.25 140.4375 89.28125 140.792969 C 90.578125 156.105469 94.128906 171.441406 96.679688 186.59375 C 99.179688 201.46875 101.644531 216.347656 104.027344 231.238281 C 106.40625 246.121094 108.703125 261.019531 110.875 275.929688 C 111.964844 283.410156 113.027344 290.894531 114.050781 298.382812 C 115.148438 306.386719 115.410156 315.058594 117.714844 322.816406 C 117.902344 323.460938 118.371094 323.8125 118.890625 323.914062 C 121.128906 327.589844 125.183594 328.941406 129.054688 330.328125 C 134.605469 332.3125 140.171875 334.246094 145.75 336.148438 C 151.324219 338.050781 156.9375 339.851562 162.550781 341.640625 C 166.898438 343.019531 172.121094 345.535156 176.910156 345.914062 C 180.71875 347.300781 184.652344 348.4375 188.460938 349.726562 C 193.117188 351.300781 197.726562 353.148438 202.6875 353.367188 C 207.125 353.5625 211.382812 351.949219 215.210938 349.824219 C 217.761719 348.40625 220.621094 346.664062 222.984375 344.570312 C 224.660156 343.625 226.339844 342.691406 228.011719 341.734375 C 230.902344 340.082031 235.542969 338.460938 237.816406 336.019531 C 239.410156 334.304688 238.761719 331.101562 238.914062 328.878906 C 239.179688 324.980469 239.460938 321.082031 239.761719 317.1875 C 240.933594 301.957031 242.34375 286.742188 243.980469 271.554688 C 247.242188 241.234375 251.40625 211.015625 256.246094 180.90625 C 257.5625 172.71875 258.929688 164.542969 260.339844 156.371094"/></g><path fill="#141640" d="M 143.453125 66.433594 C 143.96875 66.207031 144.492188 65.992188 145.003906 65.753906 C 145.3125 65.6875 145.515625 65.496094 145.613281 65.179688 C 145.691406 65.324219 145.765625 65.472656 145.84375 65.621094 C 146.523438 66.039062 147.285156 66.796875 147.976562 67.28125 C 149.65625 68.441406 151.042969 70.441406 153.398438 69.613281 C 154.96875 69.0625 155.960938 67.40625 155.425781 65.789062 C 154.984375 64.460938 153.785156 63.871094 152.511719 63.726562 C 151.515625 61.25 151.230469 58.976562 147.835938 58.515625 C 145.5625 58.207031 142.5625 58.691406 142.164062 61.28125 C 141.269531 61.445312 140.5 62.273438 140.367188 63.289062 C 140.296875 63.722656 140.257812 64.160156 140.257812 64.597656 C 140.171875 66.367188 142.082031 67.039062 143.453125 66.433594"/><path fill="#141640" d="M 166.410156 43.980469 C 166.539062 43.683594 166.667969 43.386719 166.792969 43.085938 C 167.191406 42.664062 167.519531 42.714844 167.769531 43.246094 C 168.4375 43.582031 168.9375 44.160156 169.644531 44.480469 C 170.980469 45.085938 172.585938 45.296875 174.019531 44.917969 C 176.367188 44.300781 177.574219 40.78125 174.722656 39.851562 C 174.554688 39.828125 174.390625 39.808594 174.226562 39.785156 C 174.179688 39.71875 174.105469 39.628906 173.96875 39.503906 C 173.640625 38.972656 173.042969 38.59375 172.5 38.316406 C 171.351562 37.734375 169.867188 37.410156 168.597656 37.320312 C 166.808594 37.199219 163.773438 38.335938 163.75 40.445312 C 163.09375 41.34375 162.820312 42.488281 163.269531 43.570312 C 163.761719 44.734375 165.746094 45.507812 166.410156 43.980469"/><path fill="#141640" d="M 193.9375 32.527344 C 193.902344 32.816406 194.195312 32.996094 194.433594 33.023438 C 194.496094 33.03125 194.550781 33.042969 194.609375 33.054688 C 194.558594 35.726562 195.230469 37.894531 197.851562 39.03125 C 199.515625 39.75 201.585938 39.324219 203.144531 40.152344 C 204.621094 40.9375 205.074219 42.464844 206.890625 42.824219 C 208.183594 43.082031 209.765625 42.230469 209.660156 40.714844 C 209.523438 38.757812 208.5625 37.316406 206.820312 36.390625 C 205.722656 35.808594 204.4375 35.683594 203.402344 34.988281 C 202.429688 34.332031 201.773438 33.3125 200.9375 32.5 C 199.265625 30.875 194.390625 28.746094 193.9375 32.527344"/><path fill="#141640" d="M 216.101562 63.992188 C 215.09375 62.65625 213.222656 62.621094 212.183594 61.398438 C 211.839844 60.996094 211.246094 61.183594 210.984375 61.554688 C 210.308594 62.519531 210.523438 63.753906 211.339844 64.621094 C 211.828125 65.144531 212.972656 65.308594 213.316406 65.921875 C 213.601562 66.429688 213.46875 67.339844 213.765625 67.9375 C 214.515625 69.445312 215.742188 70.304688 216.332031 71.945312 C 216.644531 72.820312 217.011719 74.34375 218.207031 74.386719 C 219.308594 74.429688 219.917969 73.050781 220 72.160156 C 220.136719 70.683594 219.269531 69.101562 218.402344 67.992188 C 217.902344 67.351562 217.113281 66.785156 216.796875 66.019531 C 216.496094 65.289062 216.617188 64.671875 216.101562 63.992188"/><path fill="#141640" d="M 238.046875 72.34375 C 237.855469 72.03125 237.585938 71.757812 237.207031 71.515625 C 236.828125 71.269531 236.429688 71.132812 235.984375 71.066406 C 235.714844 71.023438 235.441406 71.007812 235.164062 71.023438 C 234.777344 70.851562 234.535156 70.828125 234.402344 70.929688 C 234.410156 70.175781 233.53125 69.636719 232.839844 70.242188 C 232.164062 70.832031 232.039062 71.667969 232.382812 72.488281 C 232.5625 72.917969 232.84375 73.304688 233.246094 73.558594 C 233.546875 73.753906 234.714844 73.84375 235.214844 74.046875 C 235.308594 74.679688 235.664062 75.269531 236.371094 75.40625 C 238.214844 75.773438 237.386719 77.757812 237.535156 79.09375 C 237.703125 80.605469 239.902344 81.660156 240.734375 79.960938 C 242.050781 77.269531 240.984375 73.238281 238.046875 72.34375"/><path fill="#141640" d="M 160.855469 87.171875 C 163.285156 84.410156 167.367188 85.253906 170.53125 85.835938 C 171.027344 85.925781 171.664062 85.882812 172.011719 85.441406 C 173.640625 83.394531 170.664062 82.28125 169.402344 82.035156 C 167.980469 81.757812 166.511719 81.863281 165.085938 82.046875 C 162.347656 82.398438 159.542969 82.949219 158.828125 85.992188 C 158.566406 87.101562 160.011719 88.128906 160.855469 87.171875"/><path fill="#141640" d="M 151.082031 118.742188 C 152.746094 118.816406 153.628906 117.242188 154.714844 116.242188 C 156.144531 114.917969 156.703125 116.003906 158.265625 116.214844 C 159.628906 116.398438 160.566406 115.496094 160.363281 114.117188 C 159.960938 111.410156 156.152344 110.984375 154.125 111.882812 C 152.339844 112.675781 149.621094 115.277344 149.730469 117.386719 C 149.765625 118.144531 150.320312 118.707031 151.082031 118.742188"/><path fill="#141640" d="M 134.230469 130.167969 C 135.417969 129.894531 135.777344 128.304688 134.941406 127.476562 C 134.3125 126.855469 133.679688 126.558594 132.847656 126.285156 C 131.820312 125.945312 131.828125 125.8125 131.285156 124.914062 C 130.515625 123.640625 129.667969 122.105469 128.15625 121.628906 C 125.402344 120.761719 122.003906 124.222656 124.609375 126.527344 C 125.367188 127.195312 126.636719 126.96875 126.921875 125.914062 C 126.933594 125.867188 127.078125 125.464844 127.042969 125.25 C 127.226562 125.5 127.480469 126.03125 127.535156 126.128906 C 128.027344 126.964844 128.390625 127.925781 129.011719 128.675781 C 130.15625 130.054688 132.558594 130.554688 134.230469 130.167969"/><path fill="#141640" d="M 241.609375 104.621094 C 241.515625 103.507812 240.53125 102.535156 239.070312 102.808594 C 237.125 103.164062 235.265625 101.023438 233.136719 101.210938 C 231.519531 101.355469 230.503906 102.351562 229.601562 103.585938 C 228.660156 104.875 229.90625 107.132812 231.523438 106.941406 C 233.675781 106.679688 233.945312 107.867188 235.59375 108.863281 C 236.929688 109.664062 238.421875 109.515625 239.867188 109.898438 C 242.953125 110.703125 244.535156 113.558594 247.984375 113.765625 C 249.941406 113.878906 251.078125 111.132812 249.613281 109.828125 C 248.277344 108.636719 247.933594 106.71875 246.195312 105.898438 C 245.246094 105.445312 244.378906 105.644531 243.410156 105.449219 C 242.671875 105.304688 242.132812 104.984375 241.609375 104.621094"/><path fill="#141640" d="M 229.4375 92.117188 C 232.167969 91.933594 234.292969 92.921875 236.917969 93.476562 C 239.617188 94.046875 240.65625 90.25 238.054688 89.347656 C 235.261719 88.382812 230.742188 87.144531 228.460938 89.753906 C 227.734375 90.582031 228.160156 92.203125 229.4375 92.117188"/><path fill="#141640" d="M 189.167969 127.671875 C 190.328125 128.445312 191.476562 128.535156 192.765625 128.015625 C 193.691406 127.640625 195.113281 125.878906 195.460938 125.839844 C 195.933594 125.78125 197.007812 126.710938 197.523438 126.839844 C 198.207031 127.019531 198.980469 127.019531 199.671875 126.898438 C 200.960938 126.679688 202.371094 125.378906 203.664062 124.960938 C 204.386719 125.066406 205.0625 125.074219 205.945312 124.871094 C 208.074219 124.382812 207.980469 121.191406 205.945312 120.648438 C 204.875 120.359375 203.933594 120.324219 202.96875 120.554688 C 201.941406 120.300781 200.875 119.859375 199.828125 120.039062 C 199.019531 120.179688 198.679688 120.605469 197.933594 120.820312 C 197.046875 121.074219 196.824219 120.796875 195.859375 120.578125 C 193.886719 120.132812 191.390625 120.90625 190.617188 122.738281 C 189.941406 123.027344 189.292969 123.460938 188.691406 123.980469 C 187.480469 125.027344 187.996094 126.890625 189.167969 127.671875"/><path fill="#141640" d="M 222.320312 134.613281 C 223.296875 135.296875 223.070312 134.769531 223.523438 135.851562 C 224.09375 137.207031 225.921875 138.148438 227.105469 136.800781 C 228.1875 135.5625 228.390625 134.074219 227.605469 132.589844 C 227.257812 131.929688 226.738281 131.339844 226.109375 130.933594 C 225.996094 130.863281 225.878906 130.804688 225.757812 130.746094 C 225.894531 129.398438 224.632812 127.566406 223.886719 126.652344 C 222.839844 125.367188 221.703125 124.316406 220.121094 123.78125 C 218.351562 123.175781 217.421875 125.460938 218.441406 126.667969 C 219.082031 127.425781 219.5625 128.34375 220.039062 129.210938 C 220.664062 130.347656 220.710938 131.027344 220.921875 132.253906 C 221.085938 133.203125 221.519531 134.046875 222.320312 134.613281"/><path fill="#141640" d="M 170.335938 146.386719 C 168.746094 145.960938 167.296875 144.882812 165.664062 144.664062 C 164.308594 144.484375 162.953125 144.988281 161.582031 144.898438 C 160.070312 144.800781 158.855469 144.34375 157.375 144.597656 C 156.917969 144.675781 156.617188 145.269531 156.757812 145.6875 C 157.796875 148.777344 161.207031 148.78125 163.9375 148.863281 C 166.75 148.945312 170.261719 152.3125 172.714844 149.558594 C 173.074219 149.15625 173.265625 148.457031 172.917969 147.976562 C 172.121094 146.859375 171.613281 146.730469 170.335938 146.386719"/><path fill="#141640" d="M 170.210938 110.421875 C 170.035156 110.429688 169.855469 110.433594 169.679688 110.457031 C 169.609375 110.464844 169.609375 110.558594 169.679688 110.566406 C 169.855469 110.585938 170.035156 110.59375 170.210938 110.597656 C 170.320312 110.601562 170.320312 110.421875 170.210938 110.421875"/><path fill="#141640" d="M 168.085938 110.023438 C 168.144531 110.023438 168.144531 109.9375 168.085938 109.9375 C 168.03125 109.9375 168.03125 110.023438 168.085938 110.023438"/><path fill="#141640" d="M 202.625 172.539062 C 202.273438 172.472656 201.839844 172.3125 201.542969 172.527344 C 201.535156 172.527344 201.527344 172.527344 201.519531 172.527344 C 201.140625 172.53125 201.082031 173.058594 201.433594 173.175781 C 201.441406 173.179688 201.453125 173.183594 201.464844 173.1875 C 201.6875 173.449219 202.035156 173.4375 202.414062 173.488281 C 202.839844 173.539062 203.375 173.648438 203.753906 173.394531 C 203.894531 173.304688 203.90625 173.140625 203.804688 173.015625 C 203.535156 172.683594 203.019531 172.609375 202.625 172.539062"/><path fill="#141640" d="M 278.738281 318.289062 C 278.832031 318.332031 278.917969 318.371094 279.003906 318.410156 C 278.960938 318.441406 278.921875 318.472656 278.882812 318.511719 C 278.648438 318.410156 278.417969 318.308594 278.183594 318.203125 C 278.042969 318.121094 277.90625 318.035156 277.769531 317.953125 C 277.59375 317.84375 277.414062 317.800781 277.25 317.800781 C 276.976562 317.679688 276.699219 317.558594 276.421875 317.4375 C 275.910156 317.21875 275.296875 317.351562 275.023438 317.789062 C 274.394531 317.53125 273.75 317.289062 273.132812 317.039062 C 273.039062 315.972656 272.617188 315.011719 271.941406 314.261719 C 273.605469 315.234375 275.363281 316.941406 276.566406 317.4375 C 277.285156 317.734375 278.03125 317.964844 278.738281 318.289062 Z M 278.867188 323.363281 C 279.519531 323.214844 279.976562 322.902344 280.242188 322.421875 C 280.128906 323.394531 279.667969 323.707031 278.867188 323.363281 Z M 268.503906 316.59375 C 268.546875 316.476562 268.585938 316.382812 268.628906 316.273438 C 268.808594 316.460938 268.996094 316.636719 269.207031 316.796875 C 268.875 316.742188 268.582031 316.683594 268.503906 316.59375 Z M 273.789062 318.898438 C 273.761719 318.933594 273.734375 318.96875 273.710938 319.003906 C 273.574219 318.996094 273.449219 318.996094 273.324219 319.003906 C 273.21875 318.902344 273.113281 318.804688 273.007812 318.707031 C 273.015625 318.671875 273.019531 318.636719 273.027344 318.601562 C 273.285156 318.699219 273.539062 318.796875 273.789062 318.898438 Z M 269.917969 312.226562 C 269.585938 312.136719 269.214844 312.066406 268.765625 312.03125 C 266.863281 311.878906 265.082031 313.085938 264.84375 315.046875 C 264.5 317.894531 266.878906 318.070312 268.945312 318.632812 C 270.101562 318.949219 271.027344 319.582031 271.867188 320.339844 C 271.84375 320.671875 271.878906 321.066406 272.011719 321.5625 C 272.328125 322.765625 273.523438 323.578125 274.703125 323.730469 C 274.898438 323.753906 275.097656 323.761719 275.296875 323.757812 C 275.980469 324.332031 276.730469 324.8125 277.617188 325.109375 C 282.378906 326.695312 285.742188 321.539062 281.8125 318.117188 C 280.800781 317.234375 279.601562 316.828125 278.382812 316.34375 C 276.304688 315.515625 274.875 314.46875 273.128906 313.175781 C 272.121094 312.429688 270.96875 311.976562 269.917969 312.226562"/><path fill="#141640" d="M 302.34375 318.523438 C 302.746094 317.464844 302.21875 315.226562 302.066406 314.15625 C 302 313.644531 301.90625 313.144531 301.804688 312.648438 C 301.871094 312.8125 301.945312 313 302.027344 313.210938 C 303.457031 315.4375 303.558594 317.210938 302.34375 318.523438 Z M 292.152344 318.980469 C 292.199219 318.582031 291.933594 318.363281 291.613281 318.308594 C 291.410156 315.117188 289.089844 313.296875 285.710938 312.785156 C 282.804688 312.347656 280.058594 312.550781 277.59375 310.609375 C 275.648438 309.078125 274.425781 306.890625 272.09375 305.851562 C 271.417969 305.550781 270.871094 305.425781 270.359375 305.402344 C 271.375 304.101562 271.308594 301.933594 271.203125 300.160156 C 271.078125 297.953125 272.296875 297.824219 273.984375 296.785156 C 275.09375 296.097656 275.914062 295.523438 276.738281 295.109375 C 279.25 295.828125 281.730469 296.113281 284.410156 296.394531 C 287.082031 296.675781 289.074219 297.707031 290.910156 299.132812 C 291.847656 300.019531 292.804688 300.890625 293.8125 301.699219 C 294 301.875 294.1875 302.058594 294.378906 302.242188 C 297.234375 304.976562 299.578125 307.917969 300.648438 311.796875 C 301.125 313.53125 302.171875 316.941406 300.707031 318.515625 C 299 320.34375 294.992188 319.363281 292.945312 319.003906 C 292.683594 318.957031 292.535156 319.28125 292.765625 319.4375 C 293.160156 319.703125 293.710938 319.945312 294.351562 320.148438 C 293.152344 320.113281 292.039062 319.878906 292.152344 318.980469 Z M 274.203125 332.300781 C 276.761719 332.386719 279.019531 333.410156 281.5 333.574219 C 283.597656 333.71875 286.019531 332.535156 287.65625 331.238281 C 285.226562 335.371094 277.8125 334.613281 274.203125 332.300781 Z M 256.757812 329.3125 C 255.609375 327.992188 254.375 324.035156 254.378906 321.238281 C 254.5 321.75 254.664062 322.269531 254.847656 322.808594 C 255.503906 324.710938 256.292969 328.140625 258.160156 329.195312 C 258.65625 329.476562 259.53125 329.421875 260.035156 329.539062 C 261.371094 329.847656 262.496094 330.308594 263.761719 330.882812 C 263.988281 330.984375 264.203125 331.078125 264.417969 331.171875 C 261.691406 331.851562 258.820312 331.667969 256.757812 329.3125 Z M 280.386719 313.789062 C 280.902344 313.933594 281.433594 314.046875 281.972656 314.148438 C 283.21875 314.648438 284.40625 315.292969 285.316406 316.273438 C 287.339844 318.445312 286.953125 321.183594 287.320312 323.859375 C 287.699219 326.621094 288.089844 328.824219 285.746094 331.09375 C 282.988281 333.765625 279.855469 331.914062 276.875 331.488281 C 275.554688 331.300781 274.230469 331.355469 272.90625 331.410156 C 270.757812 329.882812 269.730469 329.144531 266.707031 330.40625 C 266.507812 330.492188 266.308594 330.570312 266.105469 330.644531 C 264.949219 330.28125 263.792969 329.820312 262.492188 329.316406 C 260.824219 328.675781 258.910156 328.722656 257.585938 327.257812 C 256.183594 325.714844 254.394531 320.777344 255.253906 318.394531 C 256.023438 317.40625 256.984375 316.703125 257.5625 315.394531 C 258.699219 312.828125 258.519531 309.253906 261.867188 308.179688 C 261.886719 308.175781 261.902344 308.160156 261.917969 308.152344 C 263.054688 308.019531 264.292969 308.136719 265.339844 307.972656 C 267.53125 307.628906 269.519531 305.976562 271.984375 307.128906 C 275.378906 308.71875 276.503906 312.703125 280.386719 313.789062 Z M 289.210938 320.941406 C 289.046875 321.640625 288.832031 322.335938 288.628906 323.035156 C 288.351562 320.65625 288.140625 318.148438 286.691406 316.289062 C 286.15625 315.601562 285.480469 315.070312 284.738281 314.632812 C 287.835938 315.226562 290.320312 316.265625 289.210938 320.941406 Z M 253.859375 303.089844 C 252.863281 301.53125 250.035156 298.585938 251.5 296.558594 C 252.226562 295.550781 253.984375 294.742188 254.847656 293.644531 C 255.296875 293.066406 255.675781 292.441406 256.117188 291.859375 C 258.144531 289.203125 261.097656 288.402344 263.828125 290.351562 C 264.898438 291.117188 265.828125 291.6875 267.0625 292.101562 C 268.726562 292.664062 268.34375 291.171875 270.507812 292.863281 C 270.8125 293.101562 270.886719 293.792969 271.261719 294.015625 C 271.96875 294.433594 272.441406 294.742188 273.023438 294.902344 C 272.054688 295.515625 271.136719 296.164062 270.414062 296.800781 C 269.671875 297.457031 269.027344 297.792969 268.847656 298.867188 C 268.78125 299.277344 269.050781 299.726562 269.132812 300.117188 C 269.683594 302.691406 269.820312 304.128906 267.375 306.011719 C 267.332031 306.039062 267.3125 306.082031 267.289062 306.121094 C 267.242188 306.136719 267.199219 306.15625 267.152344 306.171875 C 265.300781 306.746094 263.753906 306.734375 262.238281 307.105469 C 262.132812 306.933594 261.953125 306.8125 261.6875 306.835938 C 258.601562 307.121094 257.535156 309.351562 256.632812 311.804688 C 256.566406 310.796875 256.335938 309.746094 255.988281 308.679688 C 255.703125 306.726562 254.984375 304.839844 253.859375 303.089844 Z M 257.847656 287.574219 C 257.425781 287.851562 257.027344 288.1875 256.648438 288.570312 C 256.96875 288.140625 257.34375 287.796875 257.847656 287.574219 Z M 281.125 294.457031 C 283.664062 294.722656 285.605469 294.898438 287.550781 296.167969 C 286.929688 295.988281 286.28125 295.863281 285.589844 295.769531 C 282.90625 295.414062 280.328125 295.222656 277.734375 294.691406 C 278.636719 294.398438 279.660156 294.300781 281.125 294.457031 Z M 301.175781 309.730469 C 301.179688 310.011719 301.195312 310.238281 301.210938 310.449219 C 300.851562 309.398438 300.402344 308.378906 299.8125 307.390625 C 299.152344 306.265625 298.363281 305.171875 297.507812 304.117188 C 298.042969 304.410156 298.578125 304.699219 299.117188 305.011719 C 301.726562 306.535156 301.085938 306.371094 301.175781 309.730469 Z M 303.378906 309.527344 C 303.375 308.5 304.011719 308.050781 303.753906 306.933594 C 303.5 305.816406 302.625 304.992188 301.753906 304.328125 C 300.148438 303.089844 298.128906 302.410156 296.449219 301.269531 C 294.152344 299.710938 292.226562 297.777344 290.238281 295.863281 C 287.074219 292.820312 284.761719 293.15625 280.691406 292.238281 C 279.046875 291.863281 278.496094 291.984375 276.976562 292.714844 C 276.449219 292.972656 275.871094 293.265625 275.273438 293.589844 C 275.15625 293.253906 274.859375 293 274.386719 293.023438 C 272.878906 293.09375 271.59375 290.464844 270.042969 290.035156 C 268.386719 289.585938 266.679688 289.882812 264.976562 288.863281 C 264.015625 288.289062 263.277344 287.464844 262.183594 287.097656 C 261.285156 286.796875 260.488281 286.726562 259.769531 286.828125 C 259.765625 286.824219 259.769531 286.820312 259.769531 286.816406 C 259.734375 286.695312 259.703125 286.578125 259.671875 286.460938 C 259.613281 286.261719 259.433594 286.039062 259.214844 286.003906 C 257.726562 285.773438 256.460938 286.324219 255.558594 287.542969 C 253.695312 290.046875 253.25 293.957031 249.308594 294.273438 C 249.15625 294.285156 249.066406 294.386719 249.046875 294.535156 C 249.011719 294.886719 248.972656 295.234375 248.933594 295.582031 C 248.925781 295.640625 249.023438 295.667969 249.046875 295.613281 C 249.476562 294.789062 250.269531 294.890625 251.054688 294.707031 C 250.714844 294.90625 250.359375 295.074219 249.980469 295.191406 C 249.710938 295.277344 249.417969 295.507812 249.367188 295.804688 C 249.320312 296.09375 249.296875 296.371094 249.28125 296.640625 C 249.140625 296.414062 249.003906 296.1875 248.886719 295.980469 C 248.800781 295.832031 248.601562 295.851562 248.507812 295.980469 C 246.589844 298.800781 249.621094 301.359375 251.152344 303.589844 C 252.671875 305.796875 253.273438 308.167969 253.5 310.8125 C 253.671875 312.839844 253.136719 314.917969 253.785156 316.839844 C 253.824219 316.953125 253.894531 317.035156 253.976562 317.097656 C 252.800781 318.375 251.921875 319.1875 252.039062 321.101562 C 252.121094 322.382812 252.765625 323.699219 253.027344 324.953125 C 253.292969 326.207031 253.355469 327.417969 253.894531 328.605469 C 255.601562 332.386719 259.890625 334.164062 263.851562 333.535156 C 265.078125 333.339844 266.027344 332.796875 267.167969 332.46875 C 267.484375 332.378906 267.765625 332.304688 268.027344 332.242188 C 268.132812 332.257812 268.234375 332.273438 268.339844 332.289062 C 269.109375 332.378906 269.878906 332.382812 270.648438 332.367188 C 271.078125 332.578125 271.527344 332.898438 272.109375 333.328125 C 274.042969 334.78125 276.113281 335.742188 278.519531 336.089844 C 282.464844 336.667969 287.730469 335.5625 290.367188 332.273438 C 291.679688 330.632812 290.980469 329.722656 290.535156 327.882812 C 289.984375 325.613281 290.660156 323.808594 291.171875 321.796875 C 292.464844 322.730469 294.554688 322.199219 296.363281 322.1875 C 299.449219 322.164062 302.238281 322.464844 304.175781 319.527344 C 306.667969 315.75 303.390625 313.296875 303.378906 309.527344"/><path fill="#141640" d="M 288.445312 307.4375 C 288.410156 307.144531 288.359375 306.867188 288.300781 306.585938 C 288.324219 306.585938 288.347656 306.578125 288.367188 306.574219 C 288.65625 306.808594 288.945312 307.035156 289.253906 307.25 C 289.972656 307.753906 290.832031 306.992188 290.746094 306.230469 C 291.648438 307.433594 289.761719 307.597656 288.445312 307.4375 Z M 280.816406 300.394531 C 280.953125 300.335938 281.085938 300.285156 281.222656 300.230469 C 281.28125 300.277344 281.339844 300.316406 281.398438 300.367188 C 281.59375 300.503906 281.773438 300.652344 281.953125 300.804688 C 281.953125 300.835938 281.960938 300.867188 281.964844 300.898438 C 281.597656 300.691406 281.214844 300.523438 280.816406 300.394531 Z M 284.714844 299.835938 C 284.902344 299.882812 285.066406 299.945312 285.21875 300.011719 C 284.855469 299.917969 284.5 299.917969 284.171875 300.039062 C 284.070312 299.921875 283.96875 299.8125 283.859375 299.707031 C 284.144531 299.722656 284.429688 299.757812 284.714844 299.835938 Z M 293.5 306.457031 C 293.375 305.253906 292.457031 304.859375 291.628906 304.222656 C 290.175781 303.117188 289.195312 302.4375 288.402344 300.777344 C 288.109375 300.167969 287.835938 299.648438 287.320312 299.191406 C 285.746094 297.777344 283.933594 297.785156 282.234375 298.425781 C 281.660156 298.089844 281.046875 297.839844 280.386719 297.714844 C 278.199219 297.292969 275.921875 299.027344 276.878906 301.367188 C 277.035156 301.75 277.382812 302.15625 277.855469 302.109375 C 283.722656 301.566406 282.292969 308.085938 286.515625 309.742188 C 288.488281 310.515625 293.78125 309.292969 293.5 306.457031"/><path fill="#141640" d="M 256.828125 298.324219 C 257.777344 298.492188 258.703125 298.167969 259.652344 298.152344 C 260.820312 298.132812 261.972656 298.429688 263.140625 298.421875 C 264.714844 298.410156 266.296875 297.808594 266.902344 296.242188 C 268.132812 293.082031 264.421875 290.503906 261.816406 292.5 C 261.492188 292.75 261.269531 293.199219 261.53125 293.59375 C 261.992188 294.285156 260.976562 294.671875 259.761719 294.964844 C 259.445312 294.816406 259.132812 294.65625 258.828125 294.546875 C 257.558594 294.085938 255.464844 293.914062 254.914062 295.550781 C 254.601562 296.472656 255.078125 297.363281 255.804688 297.882812 C 255.816406 297.972656 255.824219 298.054688 255.84375 298.148438 C 255.953125 298.664062 256.554688 298.648438 256.828125 298.324219"/><path fill="#141640" d="M 265.441406 287.976562 C 265.5625 287.976562 265.5625 287.789062 265.441406 287.789062 C 265.320312 287.789062 265.320312 287.976562 265.441406 287.976562"/><path fill="#141640" d="M 200.84375 187.855469 C 200.84375 187.609375 200.480469 187.613281 200.472656 187.855469 C 199.792969 203.785156 199.699219 219.707031 199.945312 235.648438 C 200.191406 251.472656 200.050781 267.703125 202.050781 283.417969 C 202.101562 283.808594 202.679688 283.835938 202.6875 283.417969 C 202.941406 267.53125 201.578125 251.542969 201.253906 235.648438 C 200.925781 219.726562 200.894531 203.785156 200.84375 187.855469"/><path fill="#141640" d="M 200.515625 289.816406 C 199.636719 299.441406 199.886719 309.234375 199.753906 318.894531 C 199.625 328.585938 199.519531 338.277344 199.71875 347.96875 C 199.722656 348.265625 200.164062 348.265625 200.175781 347.96875 C 200.601562 338.28125 200.722656 328.589844 200.820312 318.894531 C 200.917969 309.238281 201.398438 299.453125 200.742188 289.816406 C 200.730469 289.671875 200.53125 289.675781 200.515625 289.816406"/></svg>